<?xml version="1.0" encoding="UTF-8" standalone="no"?>
<!DOCTYPE svg PUBLIC "-//W3C//DTD SVG 1.1//EN" "http://www.w3.org/Graphics/SVG/1.1/DTD/svg11.dtd">
<!-- Created with Vectornator (http://vectornator.io/) -->
<svg height="100%" stroke-miterlimit="10" style="fill-rule:nonzero;clip-rule:evenodd;stroke-linecap:round;stroke-linejoin:round;" version="1.1" viewBox="0 0 2132.58 511.227" width="100%" xml:space="preserve" xmlns="http://www.w3.org/2000/svg" xmlns:vectornator="http://vectornator.io" xmlns:xlink="http://www.w3.org/1999/xlink">
<defs>
<linearGradient gradientTransform="matrix(1.34115 0 0 1.34115 741.509 1058.64)" gradientUnits="userSpaceOnUse" id="LinearGradient" x1="63.6235" x2="317.26" y1="113.706" y2="428.862">
<stop offset="0.00828655" stop-color="#ff00da"/>
<stop offset="0.663598" stop-color="#8e00ff"/>
<stop offset="1" stop-color="#2500ff"/>
</linearGradient>
<linearGradient gradientTransform="matrix(1.34115 0 0 1.34115 741.506 1058.64)" gradientUnits="userSpaceOnUse" id="LinearGradient_2" x1="76.0034" x2="308.374" y1="127.085" y2="421.961">
<stop offset="0.00828655" stop-color="#ff00da"/>
<stop offset="0.663598" stop-color="#8e00ff"/>
<stop offset="1" stop-color="#2500ff"/>
</linearGradient>
<linearGradient gradientTransform="matrix(1.34115 0 0 1.34115 717.449 1072.91)" gradientUnits="userSpaceOnUse" id="LinearGradient_3" x1="76.0034" x2="308.374" y1="127.085" y2="421.961">
<stop offset="0.00828655" stop-color="#ff00da"/>
<stop offset="0.663598" stop-color="#8e00ff"/>
<stop offset="1" stop-color="#2500ff"/>
</linearGradient>
<linearGradient gradientTransform="matrix(1.34115 0 0 1.34115 765.563 1071.71)" gradientUnits="userSpaceOnUse" id="LinearGradient_4" x1="76.0034" x2="308.374" y1="127.085" y2="421.961">
<stop offset="0.00828655" stop-color="#ff00da"/>
<stop offset="0.663598" stop-color="#8e00ff"/>
<stop offset="1" stop-color="#2500ff"/>
</linearGradient>
<linearGradient gradientTransform="matrix(1.34115 0 0 1.34115 741.753 1056.71)" gradientUnits="userSpaceOnUse" id="LinearGradient_5" x1="69.9477" x2="307.614" y1="122.431" y2="423.905">
<stop offset="0.00828655" stop-color="#ff00da"/>
<stop offset="0.663598" stop-color="#8e00ff"/>
<stop offset="1" stop-color="#2500ff"/>
</linearGradient>
<linearGradient gradientTransform="matrix(2.7682 0 0 2.7682 484.789 709.201)" gradientUnits="userSpaceOnUse" id="LinearGradient_6" x1="107.085" x2="268.703" y1="157.69" y2="364.833">
<stop offset="0.00828655" stop-color="#ff00da"/>
<stop offset="0.663598" stop-color="#8e00ff"/>
<stop offset="1" stop-color="#2500ff"/>
</linearGradient>
<linearGradient gradientTransform="matrix(2.7682 0 0 2.7682 484.789 709.201)" gradientUnits="userSpaceOnUse" id="LinearGradient_7" x1="110.555" x2="268.985" y1="159.674" y2="363.52">
<stop offset="0.00828655" stop-color="#ff00da"/>
<stop offset="0.663598" stop-color="#8e00ff"/>
<stop offset="1" stop-color="#2500ff"/>
</linearGradient>
<linearGradient gradientTransform="matrix(2.7682 0 0 2.7682 484.789 709.201)" gradientUnits="userSpaceOnUse" id="LinearGradient_8" x1="109.218" x2="265.919" y1="157.353" y2="363.221">
<stop offset="0.00828655" stop-color="#ff00da"/>
<stop offset="0.663598" stop-color="#8e00ff"/>
<stop offset="1" stop-color="#2500ff"/>
</linearGradient>
<linearGradient gradientTransform="matrix(8.52733 0 0 8.52733 -2733.94 -877.817)" gradientUnits="userSpaceOnUse" id="LinearGradient_9" x1="336.121" x2="389.32" y1="103.708" y2="158.888">
<stop offset="0.00828655" stop-color="#ff00da"/>
<stop offset="0.663598" stop-color="#8e00ff"/>
<stop offset="1" stop-color="#2500ff"/>
</linearGradient>
<linearGradient gradientTransform="matrix(8.52733 0 0 8.52733 -2733.94 -877.817)" gradientUnits="userSpaceOnUse" id="LinearGradient_10" x1="337.429" x2="388.976" y1="109.688" y2="154.948">
<stop offset="0.00828655" stop-color="#ff00da"/>
<stop offset="0.663598" stop-color="#8e00ff"/>
<stop offset="1" stop-color="#2500ff"/>
</linearGradient>
<linearGradient gradientTransform="matrix(8.52733 0 0 8.52733 -2733.94 -877.817)" gradientUnits="userSpaceOnUse" id="LinearGradient_11" x1="342.566" x2="390.881" y1="104.027" y2="161.42">
<stop offset="0.00828655" stop-color="#ff00da"/>
<stop offset="0.663598" stop-color="#8e00ff"/>
<stop offset="1" stop-color="#2500ff"/>
</linearGradient>
</defs>
<clipPath id="ArtboardFrame">
<rect height="511.227" width="2132.58" x="0" y="0"/>
</clipPath>
<g clip-path="url(#ArtboardFrame)" id="Capa-1" vectornator:layerName="Capa 1">
<g opacity="1" vectornator:layerName="Grupo 3">
<path d="M785.685 261.024L834.197 261.024L840.59 276.067C841.593 278.073 842.471 279.953 843.223 281.708C843.975 283.463 844.727 285.343 845.479 287.349L796.967 287.349L785.685 261.024ZM721.003 98.9419C725.014 88.6629 729.088 78.5092 733.225 68.4809C737.361 58.4526 741.435 48.299 745.447 38.0199L830.061 248.614L647.295 248.614L638.269 270.802L631.5 287.349L582.988 287.349L633.38 161.744L684.149 35.0114L733.037 35.0114L711.225 89.1643L665.722 203.111L762.37 203.111L721.003 98.9419Z" fill="#303030" fill-rule="nonzero" opacity="1" stroke="none"/>
<path d="M990.639 247.11C1006.43 244.603 1020.97 238.837 1034.26 229.811L1069.99 287.349L1016.21 287.349L990.639 247.11ZM972.212 34.6354C986.001 34.6354 999.038 37.2678 1011.32 42.5327C1023.61 47.7975 1034.26 55.0054 1043.29 64.1562C1052.31 73.3071 1059.46 84.0248 1064.72 96.3095C1069.99 108.594 1072.62 121.631 1072.62 135.42C1072.62 149.46 1069.99 162.559 1064.72 174.718C1059.46 186.878 1052.31 197.47 1043.29 206.496C1034.26 215.521 1023.61 222.666 1011.32 227.931C999.038 233.196 986.001 235.828 972.212 235.828L904.521 235.828L904.521 287.349L858.641 287.349L858.641 189.949L972.212 189.949C979.733 189.949 986.816 188.507 993.459 185.624C1000.1 182.741 1005.87 178.855 1010.76 173.966C1015.65 169.077 1019.53 163.311 1022.42 156.667C1025.3 150.024 1026.74 142.941 1026.74 135.42C1026.74 127.899 1025.3 120.816 1022.42 114.172C1019.53 107.529 1015.65 101.7 1010.76 96.6856C1005.87 91.6714 1000.1 87.7228 993.459 84.8396C986.816 81.9565 979.733 80.5149 972.212 80.5149L904.521 80.5149L904.521 177.539L858.641 177.539L858.641 34.6354L972.212 34.6354Z" fill="#303030" fill-rule="nonzero" opacity="1" stroke="none"/>
<path d="M1171.9 101.574C1162.88 109.597 1156.11 118.811 1151.59 129.215C1147.08 139.619 1144.82 150.462 1144.82 161.744C1144.82 171.271 1146.52 180.547 1149.9 189.573C1153.29 198.598 1158.61 207.122 1165.88 215.145L1165.51 215.145C1173.03 223.92 1182.05 230.563 1192.58 235.076C1203.11 239.589 1214.02 241.845 1225.3 241.845C1234.83 241.845 1244.23 240.153 1253.51 236.769C1262.78 233.384 1271.43 228.056 1279.45 220.786L1283.59 216.649L1303.15 234.7C1305.65 236.957 1307.91 239.213 1309.92 241.469C1311.92 243.726 1314.3 245.982 1317.06 248.238L1314.43 250.871L1310.29 255.384L1310.29 255.007C1298.26 265.287 1284.78 273.309 1269.86 279.075C1254.95 284.842 1240.22 287.725 1225.68 287.725C1208.38 287.725 1191.52 284.215 1175.1 277.195C1158.68 270.175 1144.07 259.771 1131.29 245.982C1120.51 233.948 1112.48 220.723 1107.22 206.308C1101.95 191.892 1099.32 177.037 1099.32 161.744C1099.32 144.445 1102.89 127.523 1110.04 110.976C1117.18 94.4292 1127.53 79.7628 1141.06 66.9767L1141.06 67.3527C1153.1 57.0737 1166.51 49.1138 1181.3 43.4728C1196.09 37.8319 1210.64 35.0114 1224.93 35.0114C1241.47 35.0114 1258.02 38.4587 1274.57 45.3531C1291.11 52.2476 1305.53 61.9625 1317.81 74.4979C1314.3 77.7571 1310.73 81.0163 1307.09 84.2755C1303.46 87.5347 1300.01 90.5432 1296.75 93.301C1294.75 95.3067 1292.62 97.375 1290.36 99.506C1288.1 101.637 1285.85 103.705 1283.59 105.711C1275.57 97.9391 1266.35 91.7968 1255.95 87.284C1245.55 82.7713 1235.33 80.5149 1225.3 80.5149C1215.77 80.5149 1206.44 82.2699 1197.28 85.7798C1188.13 89.2897 1179.67 94.5545 1171.9 101.574Z" fill="#303030" fill-rule="nonzero" opacity="1" stroke="none"/>
<path d="M1528.78 261.024L1577.3 261.024L1583.69 276.067C1584.69 278.073 1585.57 279.953 1586.32 281.708C1587.07 283.463 1587.82 285.343 1588.58 287.349L1540.06 287.349L1528.78 261.024ZM1464.1 98.9419C1468.11 88.6629 1472.19 78.5092 1476.32 68.4809C1480.46 58.4526 1484.53 48.299 1488.54 38.0199L1573.16 248.614L1390.39 248.614L1381.37 270.802L1374.6 287.349L1326.09 287.349L1376.48 161.744L1427.25 35.0114L1476.13 35.0114L1454.32 89.1643L1408.82 203.111L1505.47 203.111L1464.1 98.9419Z" fill="#303030" fill-rule="nonzero" opacity="1" stroke="none"/>
<path d="M1715.31 34.6354C1729.1 34.6354 1742.14 37.2678 1754.42 42.5327C1766.7 47.7975 1777.36 54.9427 1786.39 63.9682C1795.41 72.9937 1802.56 83.6488 1807.82 95.9334C1813.09 108.218 1815.72 121.255 1815.72 135.044L1815.72 186.94C1815.72 200.98 1813.09 214.079 1807.82 226.239C1802.56 238.398 1795.41 248.991 1786.39 258.016C1777.36 267.041 1766.7 274.187 1754.42 279.451C1742.14 284.716 1729.1 287.349 1715.31 287.349L1601.74 287.349L1601.74 92.9249L1647.62 92.9249L1647.62 241.469L1715.31 241.469C1722.83 241.469 1729.91 240.028 1736.56 237.145C1743.2 234.261 1748.97 230.375 1753.86 225.487C1758.74 220.598 1762.63 214.832 1765.51 208.188C1768.4 201.544 1769.84 194.462 1769.84 186.94L1769.84 135.044C1769.84 127.523 1768.4 120.44 1765.51 113.796C1762.63 107.153 1758.74 101.386 1753.86 96.4975C1748.97 91.6087 1743.2 87.7228 1736.56 84.8396C1729.91 81.9565 1722.83 80.5149 1715.31 80.5149L1601.74 80.5149L1601.74 34.6354L1715.31 34.6354Z" fill="#303030" fill-rule="nonzero" opacity="1" stroke="none"/>
<path d="M1901.84 196.342L1901.84 241.845L2043.99 241.845L2043.99 287.349L1855.96 287.349L1855.96 196.342L1901.84 196.342ZM2043.99 35.0114L2043.99 80.5149L1901.84 80.5149L1901.84 138.428L2031.2 138.428L2031.2 183.932L1855.96 183.932L1855.96 35.0114L2043.99 35.0114Z" fill="#303030" fill-rule="nonzero" opacity="1" stroke="none"/>
</g>
<g opacity="1" vectornator:layerName="Grupo 4">
<path d="M830.807 1209.84L830.793 1288.73C830.793 1289.39 831.282 1290.14 831.884 1290.41L844.374 1295.98L858.079 1302.23C858.771 1302.54 859.333 1303.4 859.334 1304.16L852.234 1525.36C852.234 1525.36 836.364 1575.52 834.59 1582.27C832.816 1589.02 831.883 1593.38 831.782 1595.3C831.68 1597.23 834.925 1632.02 834.925 1632.02L1161.24 1632.02C1161.24 1632.02 1164.07 1598.66 1163.97 1596.23C1163.87 1593.79 1162.93 1589.06 1161.16 1582.06C1159.39 1575.06 1144.35 1526.61 1144.35 1526.61L1134.47 1306.33C1134.48 1305.57 1135.03 1304.68 1135.7 1304.33L1150.45 1296.82L1162.8 1290.51C1163.38 1290.21 1163.86 1289.43 1163.86 1288.77L1163.68 1210.75C1163.68 1210.09 1163.14 1209.55 1162.48 1209.55L1155.92 1209.51L998.21 1208.63L832.002 1208.64C831.342 1208.64 830.807 1209.18 830.807 1209.84ZM1139.7 1237.21L1139.67 1267.6C1139.66 1270.73 1137.13 1273.26 1134.01 1273.26L1102.99 1273.26L859.103 1273.26C855.981 1273.26 853.45 1270.73 853.45 1267.6L853.45 1237.25C853.45 1234.13 855.981 1231.6 859.103 1231.6L1134.05 1231.56C1137.17 1231.56 1139.7 1234.09 1139.7 1237.21ZM904.418 1322.1L1089.43 1322.5C1096.66 1322.5 1102.5 1328.34 1102.5 1335.58L1108.29 1481.25C1108.29 1488.49 1102.45 1494.37 1095.21 1494.37L950.935 1493.96C960.491 1499.87 966.903 1510.32 966.903 1522.3C966.903 1525.14 966.447 1527.83 965.771 1530.47C967.261 1530.45 972.7 1530.47 973.273 1530.47L973.231 1530.51C985.805 1530.51 998.324 1530.56 1010.83 1530.64C1023.33 1530.71 1035.8 1530.8 1048.38 1530.8C1073.53 1530.8 1092.74 1530.97 1105.67 1531.14C1118.6 1531.31 1125.24 1531.52 1125.24 1531.52C1125.24 1531.52 1126.46 1535.36 1128.26 1541.24C1130.06 1547.12 1132.47 1555.02 1134.8 1563.03C1137.13 1571.04 1138.91 1577.3 1140.12 1581.81C1141.34 1586.32 1141.99 1589.09 1142.09 1590.11L1142.26 1591.62L1142.38 1593.17L1070 1593L997.582 1592.87L925.201 1592.71L852.779 1592.58C854.25 1587.51 855.715 1582.44 857.18 1577.37C858.645 1572.3 860.11 1567.22 861.581 1562.15C864.521 1552.01 866.799 1544.32 868.37 1539.14C869.942 1533.97 870.808 1531.3 871.011 1531.1C871.213 1530.89 872.922 1530.73 876.124 1530.64C879.325 1530.54 884.02 1530.51 890.206 1530.51C890.958 1530.51 898.083 1530.53 900.558 1530.51C899.876 1527.86 899.426 1525.16 899.426 1522.3C899.426 1510.32 905.841 1499.87 915.394 1493.96L898.63 1493.96C891.393 1493.96 885.512 1488.08 885.512 1480.85L891.299 1335.17C891.299 1327.93 897.18 1322.1 904.418 1322.1Z" fill="url(#LinearGradient)" fill-rule="nonzero" opacity="1" stroke="none" vectornator:layerName="Curva 6"/>
<path d="M1056.2 1548.28C1052.9 1548.28 1049.89 1548.98 1047.71 1550.15C1045.52 1551.31 1044.17 1552.95 1044.17 1554.82C1044.17 1556.69 1045.52 1558.32 1047.71 1559.49C1049.89 1560.65 1052.9 1561.36 1056.2 1561.36C1059.5 1561.36 1062.51 1560.65 1064.69 1559.49C1066.87 1558.32 1068.23 1556.69 1068.23 1554.82C1068.23 1552.95 1066.87 1551.31 1064.69 1550.15C1062.51 1548.98 1059.5 1548.28 1056.2 1548.28Z" fill="url(#LinearGradient_2)" fill-rule="nonzero" opacity="1" stroke="none" vectornator:layerName="Curva 10"/>
<path d="M1032.14 1562.55C1028.84 1562.55 1025.83 1563.25 1023.65 1564.42C1021.47 1565.59 1020.11 1567.22 1020.11 1569.09C1020.11 1570.96 1021.47 1572.59 1023.65 1573.76C1025.83 1574.93 1028.84 1575.63 1032.14 1575.63C1035.44 1575.63 1038.45 1574.93 1040.63 1573.76C1042.81 1572.59 1044.17 1570.96 1044.17 1569.09C1044.17 1567.22 1042.81 1565.59 1040.63 1564.42C1038.45 1563.25 1035.44 1562.55 1032.14 1562.55Z" fill="url(#LinearGradient_3)" fill-rule="nonzero" opacity="1" stroke="none" vectornator:layerName="Curva 11"/>
<path d="M1080.25 1561.36C1076.95 1561.36 1073.95 1562.06 1071.76 1563.22C1069.58 1564.39 1068.23 1566.02 1068.23 1567.89C1068.23 1569.76 1069.58 1571.4 1071.76 1572.56C1073.95 1573.73 1076.95 1574.43 1080.25 1574.43C1083.55 1574.43 1086.56 1573.73 1088.74 1572.56C1090.93 1571.4 1092.28 1569.76 1092.28 1567.89C1092.28 1566.02 1090.93 1564.39 1088.74 1563.22C1086.56 1562.06 1083.55 1561.36 1080.25 1561.36Z" fill="url(#LinearGradient_4)" fill-rule="nonzero" opacity="1" stroke="none" vectornator:layerName="Curva 3"/>
<path d="M933.589 1504.39C924.741 1504.39 917.579 1511.55 917.579 1520.4C917.579 1527.33 922.02 1533.09 928.183 1535.32L928.183 1560.3C916.631 1561.48 906.138 1566.22 897.98 1573.61L968.836 1573.63C960.688 1566.24 950.237 1561.49 938.702 1560.3L938.702 1535.36C945.009 1533.21 949.599 1527.44 949.599 1520.4C949.599 1511.55 942.437 1504.39 933.589 1504.39Z" fill="url(#LinearGradient_5)" fill-rule="nonzero" opacity="1" stroke="none" vectornator:layerName="Curva 2"/>
<path d="M974.587 1440.18L1059.28 1440.18L1016.98 1369.24L974.587 1440.18Z" fill="url(#LinearGradient_6)" fill-rule="nonzero" opacity="1" stroke="none" vectornator:layerName="Curva 7"/>
<path d="M966.542 1453.67L954.172 1474.35L1079.69 1474.35L1067.32 1453.67L966.542 1453.67Z" fill="url(#LinearGradient_7)" fill-rule="nonzero" opacity="1" stroke="none" vectornator:layerName="Curva 8"/>
<path d="M997.339 1336.37L935.487 1440.18L927.442 1453.67L915.071 1474.35L938.341 1474.35L950.712 1453.67L958.757 1440.18L1009.02 1356.01L997.339 1336.37Z" fill="url(#LinearGradient_8)" fill-rule="nonzero" opacity="1" stroke="none" vectornator:layerName="Curva 9"/>
</g>
<g opacity="1" vectornator:layerName="Grupo 5">
<path d="M246.326 367.142L517.595 367.142L382.099 139.929L246.326 367.142Z" fill="url(#LinearGradient_9)" fill-rule="nonzero" opacity="1" stroke="none" vectornator:layerName="Curva 1"/>
<path d="M220.556 410.367L180.933 476.592L582.988 476.592L543.365 410.367L220.556 410.367Z" fill="url(#LinearGradient_10)" fill-rule="nonzero" opacity="1" stroke="none" vectornator:layerName="Curva 2"/>
<path d="M319.2 34.6354L121.082 367.142L95.3124 410.367L55.6887 476.592L130.226 476.592L169.849 410.367L195.618 367.142L356.607 97.5345L319.2 34.6354Z" fill="url(#LinearGradient_11)" fill-rule="nonzero" opacity="1" stroke="none" vectornator:layerName="Curva 3"/>
</g>
<g opacity="1" vectornator:layerName="Grupo 6">
<path d="M574.426 1013.26L606.238 1013.26L590.348 986.613L574.426 1013.26Z" fill="#5e5e5e" fill-rule="nonzero" opacity="1" stroke="none"/>
<path d="M571.404 1018.33L566.757 1026.09L613.906 1026.09L609.26 1018.33L571.404 1018.33Z" fill="#5e5e5e" fill-rule="nonzero" opacity="1" stroke="none"/>
<path d="M582.972 974.266L559.739 1013.26L556.717 1018.33L552.07 1026.09L560.811 1026.09L565.458 1018.33L568.48 1013.26L587.359 981.642L582.972 974.266Z" fill="#5e5e5e" fill-rule="nonzero" opacity="1" stroke="none"/>
</g>
<g opacity="1" vectornator:layerName="Grupo 2">
<path d="M902.026 384.458C904.297 382.088 906.371 379.718 908.444 377.348C910.518 375.176 912.592 373.102 914.665 371.029C918.121 367.77 921.873 364.709 925.724 361.846C929.081 359.377 932.636 357.106 936.684 355.526C939.252 354.44 942.016 353.848 944.88 354.045C946.46 354.144 947.941 354.44 949.422 355.131C952.582 356.514 953.964 359.081 954.063 362.34C954.26 365.697 953.372 368.955 952.187 372.016C950.311 377.249 947.348 381.89 943.695 386.235C941.226 389.098 938.56 391.666 935.499 394.035C935.302 394.233 935.105 394.332 935.006 394.727C935.302 394.924 935.697 394.825 936.092 394.825C939.647 395.122 943.201 395.517 946.558 396.899C948.632 397.689 950.607 398.676 952.483 400.059C955.741 402.626 957.519 405.983 958.111 410.031C958.506 413.29 958.111 416.45 957.617 419.511C956.136 428.792 951.89 436.692 945.769 443.702C941.621 448.54 936.487 452.391 930.76 455.255C924.342 458.513 917.43 460.488 910.222 461.278C902.717 462.068 895.411 461.278 888.301 458.908C885.438 457.921 882.673 456.637 880.205 454.761C878.822 453.675 877.637 452.391 876.65 450.91C874.28 447.158 874.576 443.505 877.637 440.345C879.908 437.778 882.673 435.902 885.833 434.618C890.375 432.742 895.016 431.656 899.854 430.866C903.606 430.175 907.457 429.878 911.308 429.977C914.468 430.175 917.529 430.57 920.392 431.656C922.367 432.446 924.144 433.433 925.428 435.112C926.317 436.297 926.613 437.481 926.02 438.765C925.329 440.147 924.243 440.839 922.762 441.036C921.38 441.135 920.096 440.74 918.911 440.049C918.121 439.555 917.331 439.061 916.739 438.469C915.159 436.889 913.283 436.494 911.209 436.395C908.543 436.297 905.976 436.692 903.31 437.086C901.236 437.481 899.163 437.975 897.188 438.568C894.818 439.259 892.646 440.345 890.671 441.925C889.98 442.419 889.387 443.011 888.894 443.702C887.906 445.282 887.906 446.961 888.992 448.442C889.881 449.725 891.264 450.614 892.646 451.305C895.312 452.49 898.077 452.984 900.94 453.379C904.495 453.872 907.951 453.28 911.308 452.194C914.468 451.108 917.529 450.022 920.392 448.442C924.046 446.368 927.205 443.702 929.97 440.641C933.327 437.086 935.993 433.236 937.968 428.792C939.844 424.744 940.93 420.597 941.819 416.252C942.016 414.87 942.313 413.487 942.51 412.006C942.905 409.439 942.313 407.069 941.128 404.699C940.239 403.021 938.758 401.935 936.684 401.638C933.92 401.244 931.155 401.441 928.489 401.737C925.823 402.033 923.256 402.527 920.688 403.12C919.405 403.416 918.121 403.712 916.837 404.206C915.159 404.897 913.48 405.391 911.802 405.588C910.222 405.786 908.741 405.588 907.161 405.094C906.47 404.897 905.877 404.502 905.285 404.008C904.297 403.218 904.297 401.935 905.186 400.947C905.68 400.454 906.371 400.256 906.963 399.861C912.295 397.294 917.529 394.529 922.169 390.777C925.625 388.012 928.39 384.754 930.957 381.199C934.117 376.756 936.586 372.016 938.264 366.783C938.659 365.697 938.955 364.512 939.153 363.228C939.252 362.932 939.252 362.537 939.252 362.241C939.252 361.648 939.153 361.55 938.56 361.747C938.264 361.846 937.968 362.043 937.672 362.241C933.525 364.314 929.772 366.882 926.218 369.844C922.762 372.707 919.503 375.867 916.344 379.126C911.012 384.754 906.075 390.876 901.533 397.195C896.201 404.699 891.264 412.303 886.524 420.202C886.228 420.695 885.833 421.09 885.537 421.584C884.648 423.263 883.265 424.053 881.389 424.349C879.908 424.546 878.328 424.546 876.847 424.053C874.774 423.361 873.984 422.177 874.083 420.004C874.083 419.313 874.181 418.622 874.28 417.931C875.465 411.315 876.946 404.897 879.118 398.479C880.402 394.332 882.179 390.382 883.957 386.432C886.524 380.804 889.289 375.275 892.152 369.745C894.423 365.401 896.793 361.056 899.36 356.81C899.459 356.613 899.558 356.415 899.656 356.218C900.743 354.342 902.323 353.354 904.396 353.058C906.173 352.86 907.852 352.959 909.531 353.65C911.505 354.44 912.493 355.921 912.295 358.192C912.098 359.97 911.505 361.648 911.012 363.327C909.629 367.672 907.852 371.917 905.976 376.065C904.692 378.731 903.409 381.298 902.224 383.964C902.125 384.063 902.026 384.26 902.026 384.458Z" fill="#8b8b8b" fill-rule="nonzero" opacity="1" stroke="none"/>
<path d="M998.2 421.288C997.311 422.572 996.423 423.954 995.534 425.238C993.559 428.002 991.683 430.668 989.708 433.433C988.82 434.618 987.733 435.803 986.549 436.79C984.672 438.37 982.5 439.358 980.032 439.654C977.761 439.95 975.49 439.851 973.219 439.061C969.368 437.778 967.294 434.815 966.109 431.162C965.418 428.99 965.319 426.719 965.517 424.448C965.912 418.622 967.689 413.092 969.96 407.76C971.145 405.094 972.725 402.725 974.502 400.454C976.181 398.281 977.958 396.208 980.032 394.43C983.093 391.863 986.647 390.481 990.498 389.79C993.559 389.395 996.62 389.493 999.582 389.987C1002.15 390.481 1004.32 391.567 1006 393.542C1006.2 393.739 1006.3 393.937 1006.49 394.134C1006.99 394.727 1007.09 394.628 1007.48 394.035C1007.78 393.542 1008.07 393.048 1008.37 392.653C1008.96 391.764 1009.56 390.974 1010.44 390.382C1012.52 389 1014.89 388.802 1017.26 389.098C1018.44 389.197 1019.43 389.592 1020.32 390.185C1021.31 390.876 1021.7 391.764 1021.7 392.851C1021.7 393.838 1021.5 394.727 1021.21 395.517C1020.71 396.8 1020.22 398.084 1019.73 399.269C1018.74 402.033 1017.65 404.798 1016.57 407.563C1015.97 408.945 1015.68 410.328 1015.28 411.71C1014.39 415.067 1013.01 418.128 1012.12 421.485C1011.04 425.04 1010.25 428.694 1010.35 432.446C1010.35 432.939 1010.44 433.532 1010.54 434.124C1010.64 434.618 1010.84 434.717 1011.23 434.42C1011.83 434.124 1012.22 433.729 1012.62 433.334C1014.89 431.261 1016.76 428.792 1018.54 426.324C1021.8 422.078 1025.06 417.733 1028.32 413.487C1029.3 412.204 1030.39 411.315 1031.87 410.92C1032.56 410.723 1033.15 410.624 1033.75 411.118C1034.24 411.809 1034.14 412.5 1033.85 413.092C1033.35 414.376 1032.56 415.363 1031.87 416.45C1028.41 421.485 1024.66 426.225 1021.01 431.063C1019.63 432.939 1018.34 434.914 1016.66 436.494C1013.6 439.456 1009.85 440.444 1005.7 439.358C1002.05 438.37 999.78 435.902 998.694 432.248C998.003 429.977 998.003 427.509 998.2 425.139C998.299 423.855 998.299 422.572 998.397 421.387C998.397 421.288 998.299 421.288 998.2 421.288ZM1002.54 403.811C1000.96 403.12 1000.47 401.935 999.879 400.75C999.385 399.664 998.891 398.676 998.299 397.788C996.818 395.615 995.731 395.418 993.46 396.899C993.263 397.096 993.065 397.195 992.868 397.393C991.189 398.874 989.708 400.552 988.523 402.428C986.549 405.786 984.87 409.34 983.586 412.994C981.908 417.733 981.019 422.572 980.525 427.509C980.328 428.99 980.032 430.471 980.427 431.952C980.525 432.347 980.328 432.841 980.822 432.939C981.217 433.137 981.414 432.643 981.71 432.347C983.784 430.372 985.462 428.002 987.141 425.633C990.696 420.399 994.152 415.067 997.608 409.636C998.891 407.563 1000.08 405.391 1002.54 403.811Z" fill="#8b8b8b" fill-rule="nonzero" opacity="1" stroke="none"/>
<path d="M1043.42 440.147C1041.55 440.246 1039.57 440.049 1037.7 439.555C1032.56 438.271 1029.3 435.013 1027.62 429.977C1026.14 425.238 1026.24 420.597 1027.62 415.857C1029.8 408.55 1033.65 402.132 1039.28 396.899C1043.52 392.949 1048.56 390.481 1054.38 389.592C1057.64 389.098 1060.8 389 1064.06 389.79C1067.02 390.579 1069.39 392.159 1071.17 394.727C1072.16 396.306 1072.65 397.985 1072.65 399.96C1072.65 404.008 1071.17 407.464 1068.31 410.229C1065.44 412.994 1061.89 413.487 1058.14 412.303C1057.64 412.204 1057.25 411.908 1056.85 411.611C1055.77 410.821 1055.57 409.834 1056.16 408.649C1056.46 408.057 1056.95 407.563 1057.44 406.97C1059.52 404.304 1059.91 401.342 1059.22 398.183C1058.93 396.8 1058.73 396.8 1057.64 397.491C1054.98 399.17 1052.61 401.145 1050.73 403.613C1046.58 409.143 1043.62 415.265 1042.14 422.078C1041.65 424.744 1041.35 427.41 1041.84 430.076C1042.04 431.261 1042.44 432.446 1043.13 433.532C1043.72 434.42 1044.41 434.815 1045.5 434.914C1048.56 435.013 1051.42 434.124 1054.09 432.841C1057.05 431.36 1059.81 429.681 1062.48 427.805C1068.21 423.559 1073.84 419.214 1079.56 414.969C1080.75 413.981 1082.03 413.191 1083.61 412.895C1084.2 412.796 1084.8 412.697 1085.29 412.895C1086.28 413.191 1086.67 413.981 1086.18 414.969C1085.88 415.561 1085.49 416.055 1084.99 416.45C1082.52 418.721 1079.96 420.794 1077.29 422.967C1072.65 426.817 1067.71 430.372 1062.68 433.729C1057.74 437.185 1052.31 439.555 1046.19 440.147C1045.3 440.246 1044.41 440.147 1043.42 440.147Z" fill="#8b8b8b" fill-rule="nonzero" opacity="1" stroke="none"/>
<path d="M1100.59 415.363C1099.71 416.055 1099.01 417.042 1098.22 417.931C1096.55 420.004 1094.87 422.078 1092.99 423.954C1092.7 424.349 1092.4 424.843 1092.2 425.336C1091.41 427.509 1090.72 429.78 1089.63 431.952C1088.75 433.729 1088.05 435.704 1086.97 437.481C1086.28 438.666 1085.29 439.358 1084.01 439.753C1081.93 440.444 1079.86 440.444 1077.79 439.753C1077.09 439.555 1076.6 439.259 1076.11 438.864C1075.42 438.37 1075.12 437.778 1075.12 436.988C1075.02 436.099 1075.12 435.309 1075.32 434.519C1077 427.509 1079.46 420.893 1081.73 414.08C1084.5 406.082 1087.36 398.084 1090.13 390.086C1093.98 379.323 1097.73 368.56 1101.29 357.797C1102.27 354.835 1103.36 351.972 1104.54 349.108C1105.53 346.442 1107.51 345.257 1110.17 344.862C1112.15 344.566 1114.02 344.665 1116 345.356C1116.39 345.455 1116.79 345.652 1117.18 345.85C1118.76 346.738 1119.16 347.627 1118.86 349.404C1118.57 350.886 1118.17 352.367 1117.68 353.749C1112.94 366.882 1108.2 380.014 1103.66 393.245C1102.17 397.294 1100.79 401.244 1099.41 405.391C1099.31 405.687 1099.11 405.884 1099.31 406.279C1099.61 406.181 1099.8 405.884 1100 405.687C1102.57 402.823 1105.43 400.256 1108.3 397.59C1110.07 395.912 1111.85 394.233 1113.92 392.752C1116.1 390.974 1118.47 389.493 1121.13 388.407C1124 387.222 1126.86 387.025 1129.82 387.913C1133.38 389 1134.96 391.666 1134.17 395.319C1133.67 397.886 1132.49 400.157 1131.01 402.33C1128.24 406.576 1124.29 409.439 1119.65 411.414C1118.86 411.809 1117.97 412.105 1117.08 412.5C1116.49 412.697 1116.29 412.994 1116.39 413.586C1116.59 415.363 1116.69 417.24 1116.89 419.017C1117.28 421.782 1117.48 424.546 1117.68 427.311C1117.78 428.99 1117.97 430.668 1118.17 432.446C1118.27 433.236 1118.57 434.026 1118.86 434.815C1119.06 435.21 1119.36 435.309 1119.75 435.013C1120.84 434.322 1121.82 433.532 1122.81 432.643C1124.39 431.063 1125.87 429.385 1127.35 427.706C1131.11 423.658 1134.56 419.412 1138.21 415.265C1139.1 414.179 1140.29 413.29 1141.77 413.29C1143.45 413.191 1144.14 414.179 1143.25 415.66C1142.46 417.141 1141.37 418.424 1140.39 419.708C1137.03 424.053 1133.48 428.2 1129.82 432.248C1128.34 433.828 1127.16 435.507 1125.67 436.988C1121.53 440.937 1115.41 440.937 1111.55 438.271C1109.97 437.185 1108.59 435.902 1107.51 434.322C1104.05 429.088 1101.68 423.46 1100.79 417.24C1100.79 416.943 1100.79 416.647 1100.79 416.252C1100.69 415.956 1100.79 415.66 1100.59 415.363ZM1109.18 406.378C1113.23 404.996 1116.1 402.033 1118.27 398.479C1114.91 400.75 1111.95 403.515 1109.18 406.378Z" fill="#8b8b8b" fill-rule="nonzero" opacity="1" stroke="none"/>
<path d="M1176.33 434.42C1176.92 434.322 1177.22 434.026 1177.51 433.729C1179.88 431.557 1181.86 429.088 1183.83 426.62C1186.8 423.065 1189.76 419.609 1192.82 416.252C1193.61 415.462 1194.3 414.574 1195.19 413.882C1195.88 413.389 1196.67 412.994 1197.56 412.994C1198.74 412.895 1199.53 413.784 1199.24 414.969C1199.04 415.758 1198.64 416.45 1198.15 417.042C1196.47 419.313 1194.69 421.485 1192.92 423.756C1189.66 427.904 1186.1 431.952 1182.85 436.099C1181.36 437.975 1179.59 439.654 1177.32 440.641C1174.45 441.925 1171.59 442.024 1168.63 440.839C1166.95 440.147 1165.76 438.963 1164.87 437.284C1163.2 434.026 1162.7 430.471 1163 426.817C1163.59 421.09 1164.87 415.66 1166.55 410.229C1167.64 406.773 1168.23 403.218 1169.22 399.762C1172.58 388.012 1174.26 382.483 1175.84 376.953C1176.23 375.67 1176.23 375.867 1174.85 375.867C1132.98 376.558 1129.51 379.62 1125.86 381.102C1124.48 381.694 1123.1 382.385 1121.91 383.274C1121.22 383.768 1121.22 383.866 1121.81 384.459C1122.5 385.15 1122.4 385.545 1121.71 386.137C1121.02 386.73 1120.13 386.927 1119.25 386.927C1116.58 386.631 1114.31 385.545 1112.53 383.57C1110.95 381.793 1110.75 380.114 1111.84 378.139C1112.73 376.461 1114.01 375.276 1115.49 374.19C1117.76 372.61 1120.33 371.524 1122.9 370.734C1126.55 369.746 1130.21 369.253 1133.96 368.956C1136.13 368.858 1138.02 366.882 1178.3 366.882C1179.09 366.882 1179.59 366.684 1179.88 365.795C1180.87 363.426 1186.4 352.663 1186.4 352.663C1186.99 351.577 1187.78 350.491 1188.67 349.602C1189.46 348.812 1190.25 348.318 1191.24 348.022C1193.41 347.43 1195.68 347.43 1197.76 348.22C1199.93 348.911 1200.72 350.293 1200.42 352.465C1200.13 354.737 1199.43 356.909 1198.55 358.982L1196.47 364.314C1196.18 365.006 1195.88 365.697 1195.68 366.289C1195.29 367.375 1195.29 367.474 1196.47 367.573C1197.46 367.672 1198.35 367.869 1199.34 367.869C1219.71 367.578 1220.38 366.987 1224.33 368.37C1226.1 369.061 1220.87 374.097 1217.91 373.702C1202.82 374.777 1205.53 374.582 1194.36 374.897C1192.38 374.798 1192.62 374.781 1192.03 376.46C1188.47 387.025 1183.44 403.712 1180.18 414.277C1179.09 418.029 1177.91 421.683 1177.22 425.435C1176.82 427.904 1176.53 430.273 1176.33 432.643C1176.23 433.236 1176.23 433.828 1176.33 434.42Z" fill="#8b8b8b" fill-rule="nonzero" opacity="1" stroke="none"/>
<path d="M1193.51 422.769C1193.61 415.462 1195.29 409.044 1198.74 403.218C1199.93 401.342 1201.21 399.565 1202.89 398.183C1205.06 396.504 1207.43 395.615 1210.1 395.714C1210.79 395.714 1211.28 395.517 1211.68 395.023C1214.54 391.073 1218.59 389.197 1223.23 388.506C1226.59 388.012 1229.95 388.21 1233.1 389.493C1237.25 391.271 1239.52 394.43 1240.31 398.775C1241 402.527 1240.81 406.279 1239.92 409.933C1239.23 412.697 1238.54 415.462 1237.55 418.128C1237.45 418.227 1237.45 418.326 1237.35 418.523C1237.25 418.918 1237.45 419.017 1237.75 419.017C1238.34 419.017 1238.93 418.918 1239.52 418.819C1244.07 418.128 1248.51 417.141 1252.75 415.561C1254.24 414.969 1255.62 414.376 1257 413.882C1257.89 413.487 1258.78 413.389 1259.67 413.191C1260.06 413.191 1260.55 413.191 1261.05 413.29C1262.04 413.586 1262.43 414.376 1261.84 415.363C1261.34 416.252 1260.55 416.943 1259.57 417.437C1258.48 418.029 1257.3 418.622 1256.11 419.116C1251.47 420.992 1246.63 422.078 1241.7 422.868C1239.72 423.263 1237.75 423.46 1235.77 423.756C1235.28 423.855 1234.88 424.053 1234.68 424.448C1232.91 427.805 1230.64 430.866 1228.07 433.631C1224.71 437.185 1220.86 440.147 1216.12 441.53C1210.3 443.11 1204.86 442.32 1200.03 438.765C1197.66 436.988 1196.27 434.618 1195.19 431.952C1194 428.792 1193.61 425.534 1193.51 422.769ZM1209.31 414.277C1209.01 415.956 1208.91 417.338 1208.81 418.721C1208.62 422.572 1209.11 426.225 1210.1 429.977C1210.49 431.458 1210.99 433.038 1211.78 434.42C1212.27 435.21 1212.37 435.21 1213.16 434.815C1216.12 433.236 1218.59 430.965 1220.66 428.397C1221.65 427.114 1222.64 425.83 1223.43 424.448C1223.72 423.855 1223.72 423.756 1223.13 423.559C1222.54 423.46 1221.95 423.361 1221.26 423.164C1217.5 421.979 1214.15 420.103 1211.38 417.042C1210.69 416.252 1210.1 415.363 1209.31 414.277ZM1221.35 408.748C1221.35 409.044 1221.35 409.34 1221.35 409.636C1221.45 411.908 1222.14 413.981 1223.43 415.857C1224.12 416.746 1224.91 417.437 1225.9 417.931C1226.29 418.227 1226.59 418.128 1226.79 417.635C1226.88 417.24 1227.08 416.746 1227.28 416.252C1227.97 414.179 1228.46 412.006 1228.96 409.834C1229.35 407.365 1229.75 404.798 1229.35 402.132C1229.06 400.454 1228.76 398.775 1227.87 397.195C1227.67 396.701 1227.28 396.306 1226.88 395.912C1226.59 395.615 1226.29 395.615 1226 395.912C1225.7 396.208 1225.4 396.504 1225.11 396.8C1222.54 400.355 1221.65 404.502 1221.35 408.748Z" fill="#8b8b8b" fill-rule="nonzero" opacity="1" stroke="none"/>
<path d="M1294.92 434.42C1295.51 434.322 1295.81 434.026 1296.1 433.729C1298.47 431.557 1300.45 429.088 1302.42 426.62C1305.38 423.065 1308.35 419.609 1311.41 416.252C1312.2 415.462 1312.89 414.574 1313.78 413.882C1314.47 413.389 1315.26 412.994 1316.15 412.994C1317.33 412.895 1318.12 413.784 1317.82 414.969C1317.63 415.758 1317.23 416.45 1316.74 417.042C1315.06 419.313 1313.28 421.485 1311.51 423.756C1308.25 427.904 1304.69 431.952 1301.43 436.099C1299.95 437.975 1298.18 439.654 1295.9 440.641C1293.04 441.925 1290.18 442.024 1287.21 440.839C1285.54 440.147 1284.35 438.963 1283.46 437.284C1281.78 434.026 1281.29 430.471 1281.59 426.817C1282.18 421.09 1283.46 415.66 1285.14 410.229C1286.23 406.773 1286.82 403.218 1287.81 399.762C1291.16 388.012 1292.84 382.483 1294.42 376.953C1294.82 375.67 1294.82 375.867 1293.44 375.867C1251.57 376.558 1247.82 377.644 1244.16 379.126C1242.78 379.718 1241.4 380.409 1240.21 381.298C1239.52 381.792 1239.52 381.89 1240.12 382.483C1240.81 383.174 1240.71 383.569 1240.02 384.161C1239.33 384.754 1238.44 384.951 1237.55 384.951C1234.88 384.655 1232.61 383.569 1230.83 381.594C1229.25 379.817 1229.06 378.138 1230.14 376.163C1231.03 374.485 1232.31 373.3 1233.8 372.214C1236.07 370.634 1238.63 369.548 1241.2 368.758C1244.86 367.77 1248.51 367.277 1252.26 366.98C1254.43 366.882 1256.61 366.882 1296.89 366.882C1297.68 366.882 1298.18 366.684 1298.47 365.795C1299.46 363.426 1304.99 352.663 1304.99 352.663C1305.58 351.577 1306.37 350.491 1307.26 349.602C1308.05 348.812 1308.84 348.318 1309.83 348.022C1312 347.43 1314.27 347.43 1316.34 348.22C1318.52 348.911 1319.31 350.293 1319.01 352.465C1318.71 354.737 1318.02 356.909 1317.13 358.982L1315.06 364.314C1314.76 365.006 1314.47 365.697 1314.27 366.289C1313.87 367.375 1313.87 367.474 1315.06 367.573C1316.05 367.672 1316.94 367.869 1317.92 367.869C1354.06 367.77 1358.21 368.462 1362.16 369.844C1363.94 370.535 1365.71 371.424 1367.29 372.609C1367.99 373.201 1368.68 373.892 1369.17 374.682C1370.16 376.46 1369.37 377.941 1367.29 378.039C1366.31 378.138 1365.32 377.941 1364.43 377.447C1361.76 375.768 1358.7 375.571 1355.74 375.176C1320.1 375.373 1316.44 375.176 1312.89 374.978C1310.91 374.88 1311.21 374.781 1310.62 376.46C1307.06 387.025 1302.03 403.712 1298.77 414.277C1297.68 418.029 1296.5 421.683 1295.81 425.435C1295.41 427.904 1295.11 430.273 1294.92 432.643C1294.82 433.236 1294.82 433.828 1294.92 434.42Z" fill="#8b8b8b" fill-rule="nonzero" opacity="1" stroke="none"/>
<path d="M1331.75 405.193C1332.93 403.811 1334.02 402.33 1335.2 401.046C1338.86 396.899 1342.61 392.949 1347.15 389.691C1349.32 388.111 1351.59 386.926 1354.36 386.531C1356.43 386.235 1358.51 386.432 1360.58 387.222C1362.95 388.21 1364.53 389.987 1364.23 393.542C1363.84 397.689 1362.55 401.638 1361.17 405.489C1358.9 411.611 1356.63 417.733 1355.25 424.151C1354.56 427.114 1353.96 429.977 1353.27 432.939C1353.17 433.334 1353.08 433.729 1353.27 434.223C1353.87 434.026 1354.26 433.532 1354.66 433.137C1356.23 431.557 1357.72 429.878 1359.2 428.2C1362.65 424.25 1366.01 420.301 1369.47 416.351C1370.26 415.363 1371.05 414.376 1372.03 413.487C1372.72 412.895 1373.51 412.5 1374.4 412.303C1375.59 412.006 1376.38 412.796 1375.98 413.981C1375.79 414.672 1375.29 415.363 1374.9 415.956C1372.13 419.708 1369.07 423.263 1366.11 426.916C1363.54 429.878 1360.88 432.841 1358.41 435.902C1357.42 437.185 1356.33 438.271 1354.95 439.16C1351.4 441.53 1346.16 440.937 1343.3 437.876C1342.9 437.383 1342.51 436.889 1342.21 436.297C1341.13 434.124 1340.54 431.853 1340.44 429.385C1340.34 421.88 1341.72 414.771 1344.29 407.859C1345.08 405.489 1345.97 403.218 1346.85 400.947C1346.95 400.552 1347.25 400.157 1347.05 399.664C1346.66 399.762 1346.36 400.157 1346.16 400.355C1341.92 404.502 1337.87 408.945 1334.31 413.685C1330.46 418.721 1326.91 424.053 1323.65 429.483C1323.06 430.471 1322.47 431.458 1321.87 432.446C1321.08 433.631 1320.49 434.815 1320.1 436.198C1319.5 438.173 1317.92 439.061 1316.15 439.654C1313.87 440.444 1311.51 440.345 1309.23 439.555C1308.74 439.358 1308.35 439.16 1307.85 438.864C1306.57 438.074 1305.98 436.692 1306.47 435.21C1307.36 432.742 1307.95 430.175 1308.84 427.706C1311.31 420.202 1313.78 412.599 1316.34 405.094C1321.18 391.172 1326.02 377.348 1330.96 363.524C1332.64 358.884 1334.31 354.243 1335.99 349.602C1336.19 349.108 1336.39 348.516 1336.59 348.022C1337.08 346.64 1337.97 345.751 1339.35 345.257C1342.41 344.072 1345.47 343.974 1348.53 345.257C1348.93 345.455 1349.32 345.652 1349.62 345.85C1350.71 346.64 1351.3 347.726 1350.8 349.108C1350.41 350.194 1350.11 351.281 1349.72 352.367C1345.67 364.413 1341.52 376.361 1337.38 388.407C1335.6 393.64 1333.72 398.874 1331.94 404.107C1331.75 404.403 1331.65 404.699 1331.55 405.094C1331.65 405.094 1331.65 405.094 1331.75 405.193Z" fill="#8b8b8b" fill-rule="nonzero" opacity="1" stroke="none"/>
<path d="M1384.18 425.83C1384.08 427.607 1384.38 429.483 1385.07 431.36C1385.26 432.149 1385.66 432.841 1386.05 433.532C1386.84 434.618 1387.73 435.112 1389.12 434.914C1391.58 434.519 1393.95 433.631 1396.22 432.643C1401.46 430.372 1406.2 427.509 1410.64 423.954C1414.89 420.597 1419.23 417.338 1423.38 413.882C1424.37 413.092 1425.45 412.401 1426.83 412.303C1427.23 412.204 1427.62 412.204 1428.02 412.303C1428.91 412.697 1429.2 413.389 1428.81 414.277C1428.61 414.771 1428.22 415.265 1427.82 415.66C1425.55 417.931 1423.18 419.906 1420.71 421.88C1414.69 426.62 1408.57 431.162 1402.15 435.408C1398.69 437.876 1394.84 439.456 1390.6 440.246C1385.66 441.234 1381.02 440.641 1376.67 437.975C1373.81 436.198 1371.74 433.729 1370.45 430.57C1369.56 428.2 1369.07 425.731 1369.07 423.164C1369.07 420.794 1369.37 418.424 1370.06 416.153C1371.84 409.834 1374.9 404.304 1379.24 399.466C1382.01 396.405 1385.17 393.838 1388.82 391.863C1391.98 390.185 1395.34 389.098 1398.99 388.703C1401.75 388.407 1404.52 388.506 1407.19 389.197C1409.26 389.691 1411.23 390.283 1412.81 391.764C1414.69 393.344 1415.87 395.319 1415.87 397.886C1415.87 399.367 1415.68 400.651 1415.18 402.033C1414.29 405.094 1412.91 407.859 1411.04 410.328C1406.69 415.956 1401.16 419.214 1394.15 420.004C1391.29 420.301 1388.33 420.498 1385.46 420.103C1384.87 420.004 1384.67 420.301 1384.57 420.794C1384.38 422.374 1384.18 423.954 1384.18 425.83ZM1402.05 398.775C1401.95 398.38 1401.85 397.886 1401.85 397.491C1401.75 396.998 1401.46 396.899 1401.16 397.096C1400.87 397.096 1400.67 397.195 1400.47 397.294C1398.59 398.281 1396.92 399.466 1395.44 400.849C1392.77 403.416 1390.6 406.378 1388.82 409.538C1388.03 410.92 1387.34 412.303 1386.84 413.685C1386.55 414.277 1386.65 414.475 1387.34 414.376C1388.13 414.277 1388.92 414.08 1389.71 413.981C1391.88 413.586 1393.76 412.697 1395.34 411.118C1397.9 408.649 1400.08 405.786 1401.36 402.428C1401.75 401.244 1401.85 400.059 1402.05 398.775Z" fill="#8b8b8b" fill-rule="nonzero" opacity="1" stroke="none"/>
<path d="M1491.51 395.22C1492 394.825 1492 394.43 1492.2 394.134C1493.48 390.777 1496.05 389.296 1499.61 389.197C1501.09 389.098 1502.57 389.197 1504.05 389.79C1504.25 389.888 1504.54 389.888 1504.84 390.086C1506.62 390.876 1507.21 392.061 1506.91 394.035C1506.52 396.109 1506.02 398.183 1505.33 400.157C1503.75 405.292 1501.78 410.328 1499.8 415.363C1499.21 417.042 1498.62 418.819 1497.93 420.498C1497.93 420.695 1497.73 420.893 1497.93 421.189C1498.22 421.189 1498.52 420.893 1498.82 420.695C1503.06 418.227 1507.31 415.561 1511.75 413.29C1512.84 412.697 1514.02 412.204 1515.31 412.006C1516 411.908 1516.59 412.006 1517.28 412.204C1518.17 412.599 1518.37 413.29 1517.78 414.08C1517.38 414.574 1516.89 414.969 1516.29 415.265C1510.17 419.214 1503.95 422.868 1497.73 426.62C1495.26 428.002 1495.26 428.002 1494.27 430.668C1491.91 436.988 1489.83 443.505 1487.66 449.923C1485.68 455.749 1483.61 461.476 1481.24 467.104C1480.45 468.98 1479.56 470.757 1478.18 472.337C1474.43 476.978 1468.31 477.472 1463.86 475.497C1461.69 474.509 1460.01 473.127 1458.73 471.152C1456.85 468.289 1455.27 465.425 1454.38 462.167C1453.2 457.921 1453.99 453.971 1456.56 450.417C1458.23 448.145 1460.21 446.171 1462.28 444.393C1466.63 440.542 1471.47 437.284 1476.21 434.124C1476.8 433.729 1477.29 433.236 1477.49 432.544C1478.18 430.471 1478.87 428.496 1479.56 426.422C1479.66 426.126 1479.86 425.83 1479.86 425.534C1479.46 425.633 1479.36 425.929 1479.27 426.126C1477.98 427.904 1476.7 429.681 1475.51 431.458C1474.23 433.236 1472.85 434.815 1471.27 436.395C1466.73 440.839 1459.52 440.542 1455.47 438.074C1453.1 436.692 1451.72 434.519 1450.73 432.051C1450.14 430.668 1449.94 429.088 1449.84 427.509C1449.64 423.361 1450.34 419.412 1451.52 415.462C1452.41 412.401 1453.4 409.439 1454.78 406.674C1456.26 403.712 1458.23 401.244 1460.21 398.676C1461.69 396.899 1463.27 395.22 1465.15 393.838C1468.01 391.666 1471.17 390.382 1474.63 389.888C1477.98 389.296 1481.34 389.395 1484.6 390.185C1487.46 390.876 1489.73 392.357 1491.31 394.924C1491.31 395.023 1491.41 395.023 1491.51 395.22ZM1486.77 403.91C1485.88 403.317 1485.29 402.725 1484.8 401.935C1484.5 401.244 1484.1 400.552 1483.81 399.96C1483.31 398.775 1482.62 397.788 1481.93 396.8C1481.14 395.813 1480.25 395.813 1479.27 396.109C1478.57 396.405 1477.88 396.8 1477.39 397.294C1475.71 398.775 1474.03 400.454 1472.85 402.428C1470.08 407.069 1468.01 412.105 1466.63 417.338C1465.64 421.09 1465.05 424.744 1464.65 428.595C1464.55 429.78 1464.55 430.965 1464.75 432.149C1464.75 432.446 1464.75 432.841 1465.05 432.939C1465.44 433.137 1465.64 432.742 1465.84 432.544C1467.22 431.162 1468.5 429.681 1469.69 428.101C1473.64 422.473 1477.39 416.647 1481.14 410.821C1482.72 408.353 1484.1 405.588 1486.77 403.91ZM1474.13 443.406C1473.64 443.406 1473.54 443.603 1473.34 443.702C1472.55 444.492 1471.66 445.183 1470.77 445.973C1468.6 448.047 1466.43 450.022 1464.75 452.49C1462.58 455.65 1462.48 458.908 1463.86 462.364C1464.55 464.043 1465.54 465.623 1466.53 467.203C1466.63 467.4 1466.73 467.795 1467.22 467.795C1469.69 459.797 1471.76 451.601 1474.13 443.406Z" fill="#8b8b8b" fill-rule="nonzero" opacity="1" stroke="none"/>
<path d="M1543.94 421.288C1543.05 422.572 1542.16 423.954 1541.28 425.238C1539.3 428.002 1537.42 430.668 1535.45 433.433C1534.56 434.618 1533.47 435.803 1532.29 436.79C1530.41 438.37 1528.24 439.358 1525.77 439.654C1523.5 439.95 1521.23 439.851 1518.96 439.061C1515.11 437.778 1513.04 434.815 1511.85 431.162C1511.16 428.99 1511.06 426.719 1511.26 424.448C1511.65 418.622 1513.43 413.092 1515.7 407.76C1516.89 405.094 1518.47 402.725 1520.24 400.454C1521.92 398.281 1523.7 396.208 1525.77 394.43C1528.83 391.863 1532.39 390.481 1536.24 389.79C1539.3 389.395 1542.36 389.493 1545.32 389.987C1547.89 390.481 1550.06 391.567 1551.74 393.542C1551.94 393.739 1552.04 393.937 1552.24 394.134C1552.73 394.727 1552.83 394.628 1553.22 394.035C1553.52 393.542 1553.82 393.048 1554.11 392.653C1554.7 391.764 1555.3 390.974 1556.19 390.382C1558.26 389 1560.63 388.802 1563 389.098C1564.18 389.197 1565.17 389.592 1566.06 390.185C1567.05 390.876 1567.44 391.764 1567.44 392.851C1567.44 393.838 1567.24 394.727 1566.95 395.517C1566.45 396.8 1565.96 398.084 1565.47 399.269C1564.48 402.033 1563.39 404.798 1562.31 407.563C1561.71 408.945 1561.42 410.328 1561.02 411.71C1560.14 415.067 1558.75 418.128 1557.86 421.485C1556.78 425.04 1555.99 428.694 1556.09 432.446C1556.09 432.939 1556.19 433.532 1556.28 434.124C1556.38 434.618 1556.58 434.717 1556.98 434.42C1557.57 434.124 1557.96 433.729 1558.36 433.334C1560.63 431.261 1562.5 428.792 1564.28 426.324C1567.54 422.078 1570.8 417.733 1574.06 413.487C1575.04 412.204 1576.13 411.315 1577.61 410.92C1578.3 410.723 1578.9 410.624 1579.49 411.118C1579.98 411.809 1579.88 412.5 1579.59 413.092C1579.09 414.376 1578.3 415.363 1577.61 416.45C1574.16 421.485 1570.4 426.225 1566.75 431.063C1565.37 432.939 1564.08 434.914 1562.41 436.494C1559.35 439.456 1555.59 440.444 1551.45 439.358C1547.79 438.37 1545.52 435.902 1544.44 432.248C1543.74 429.977 1543.74 427.509 1543.94 425.139C1544.04 423.855 1544.04 422.572 1544.14 421.387C1544.14 421.288 1544.04 421.288 1543.94 421.288ZM1548.29 403.811C1546.71 403.12 1546.21 401.935 1545.62 400.75C1545.13 399.664 1544.63 398.676 1544.04 397.788C1542.56 395.615 1541.47 395.418 1539.2 396.899C1539 397.096 1538.81 397.195 1538.61 397.393C1536.93 398.874 1535.45 400.552 1534.26 402.428C1532.29 405.786 1530.61 409.34 1529.33 412.994C1527.65 417.733 1526.76 422.572 1526.27 427.509C1526.07 428.99 1525.77 430.471 1526.17 431.952C1526.27 432.347 1526.07 432.841 1526.56 432.939C1526.96 433.137 1527.16 432.643 1527.45 432.347C1529.53 430.372 1531.2 428.002 1532.88 425.633C1536.44 420.399 1539.89 415.067 1543.35 409.636C1544.63 407.563 1545.82 405.391 1548.29 403.811Z" fill="#8b8b8b" fill-rule="nonzero" opacity="1" stroke="none"/>
<path d="M1629.94 400.651C1629.55 400.947 1629.06 401.342 1628.66 401.737C1626.49 403.712 1624.61 406.082 1622.74 408.452C1618.69 413.487 1615.04 418.819 1611.58 424.151C1610.3 426.126 1609.51 428.2 1608.81 430.372C1608.22 432.149 1607.43 433.729 1606.54 435.408C1605.85 436.79 1604.67 437.58 1603.19 437.975C1601.41 438.469 1599.73 438.37 1597.95 437.876C1597.56 437.679 1597.16 437.481 1596.77 437.284C1595.78 436.692 1595.19 435.803 1595.19 434.618C1595.19 433.236 1595.39 431.952 1595.68 430.57C1596.97 425.238 1598.25 419.906 1600.03 414.672C1600.62 412.895 1601.31 411.118 1601.9 409.34C1602.1 409.044 1602.2 408.649 1602.3 408.254C1602 408.353 1601.9 408.55 1601.7 408.748C1597.36 414.969 1592.92 421.09 1588.47 427.311C1586.8 429.681 1585.22 431.952 1583.64 434.322C1582.45 436.099 1581.07 437.876 1579.88 439.654C1579.29 440.542 1578.4 441.036 1577.41 441.332C1575.34 441.925 1573.27 441.826 1571.29 441.036C1569.81 440.444 1569.02 439.456 1568.92 437.876C1568.82 435.408 1568.82 432.939 1569.32 430.57C1570.4 426.126 1571.49 421.683 1572.97 417.338C1574.65 412.303 1576.23 407.168 1577.91 402.132C1578.8 399.466 1579.88 396.8 1580.97 394.233C1581.17 393.739 1581.36 393.344 1581.56 392.851C1582.15 391.567 1583.14 390.678 1584.43 390.185C1587.59 389 1590.74 389 1593.9 390.185C1594.4 390.382 1594.89 390.678 1595.39 391.073C1596.27 391.863 1596.77 392.752 1596.57 393.937C1596.57 394.727 1596.27 395.418 1596.08 396.109C1594.99 399.17 1593.9 402.231 1592.72 405.292C1592.62 405.687 1592.42 405.983 1592.42 406.477C1592.92 406.181 1593.11 405.786 1593.41 405.391C1596.77 401.046 1600.42 396.998 1604.17 393.147C1605.16 392.061 1606.25 391.172 1607.43 390.382C1608.72 389.395 1610.1 388.901 1611.58 388.703C1613.65 388.407 1615.63 388.605 1617.5 389.296C1619.87 390.185 1620.76 391.567 1620.76 394.035C1620.76 395.319 1620.56 396.504 1620.47 397.788C1620.86 397.788 1621.06 397.491 1621.26 397.294C1623.72 394.825 1626.29 392.752 1629.25 390.876C1631.03 389.691 1633.01 388.703 1635.18 388.506C1637.45 388.21 1639.62 388.308 1641.7 389.197C1644.16 390.283 1645.25 392.159 1645.35 394.727C1645.45 396.998 1644.85 399.17 1644.16 401.244C1642.78 405.786 1641.4 410.229 1640.31 414.771C1639.03 419.609 1637.84 424.448 1637.05 429.385C1636.86 430.866 1636.96 432.347 1636.96 433.828C1637.45 433.828 1637.65 433.433 1637.94 433.236C1640.31 430.767 1642.49 428.2 1644.66 425.534C1647.32 422.275 1649.89 419.017 1652.46 415.758C1653.35 414.771 1654.24 413.882 1655.42 413.487C1656.21 413.29 1657 412.994 1657.59 413.784C1658.09 414.475 1657.79 415.166 1657.39 415.857C1656.31 417.338 1655.22 418.918 1654.04 420.498C1651.08 424.546 1647.82 428.496 1644.76 432.544C1643.27 434.42 1641.89 436.494 1640.31 438.37C1639.03 439.851 1637.55 441.036 1635.57 441.431C1632.81 441.826 1630.14 441.53 1627.87 439.654C1626.88 438.765 1626.09 437.679 1625.6 436.395C1625.11 435.21 1624.81 434.026 1624.61 432.841C1624.12 429.78 1624.32 426.719 1624.71 423.658C1625.7 416.647 1627.18 409.735 1629.35 403.021C1629.55 402.231 1629.85 401.54 1630.04 400.75L1629.94 400.651Z" fill="#8b8b8b" fill-rule="nonzero" opacity="1" stroke="none"/>
<path d="M1665.99 425.83C1665.89 427.607 1666.18 429.483 1666.87 431.36C1667.07 432.149 1667.47 432.841 1667.86 433.532C1668.65 434.618 1669.54 435.112 1670.92 434.914C1673.39 434.519 1675.76 433.631 1678.03 432.643C1683.27 430.372 1688 427.509 1692.45 423.954C1696.69 420.597 1701.04 417.338 1705.19 413.882C1706.17 413.092 1707.26 412.401 1708.64 412.303C1709.04 412.204 1709.43 412.204 1709.83 412.303C1710.72 412.697 1711.01 413.389 1710.62 414.277C1710.42 414.771 1710.02 415.265 1709.63 415.66C1707.36 417.931 1704.99 419.906 1702.52 421.88C1696.5 426.62 1690.37 431.162 1683.96 435.408C1680.5 437.876 1676.65 439.456 1672.4 440.246C1667.47 441.234 1662.83 440.641 1658.48 437.975C1655.62 436.198 1653.54 433.729 1652.26 430.57C1651.37 428.2 1650.88 425.731 1650.88 423.164C1650.88 420.794 1651.17 418.424 1651.87 416.153C1653.64 409.834 1656.7 404.304 1661.05 399.466C1663.81 396.405 1666.97 393.838 1670.63 391.863C1673.79 390.185 1677.14 389.098 1680.8 388.703C1683.56 388.407 1686.33 388.506 1688.99 389.197C1691.07 389.691 1693.04 390.283 1694.62 391.764C1696.5 393.344 1697.68 395.319 1697.68 397.886C1697.68 399.367 1697.48 400.651 1696.99 402.033C1696.1 405.094 1694.72 407.859 1692.84 410.328C1688.5 415.956 1682.97 419.214 1675.96 420.004C1673.09 420.301 1670.13 420.498 1667.27 420.103C1666.68 420.004 1666.48 420.301 1666.38 420.794C1666.18 422.374 1665.99 423.954 1665.99 425.83ZM1683.86 398.775C1683.76 398.38 1683.66 397.886 1683.66 397.491C1683.56 396.998 1683.27 396.899 1682.97 397.096C1682.67 397.096 1682.48 397.195 1682.28 397.294C1680.4 398.281 1678.72 399.466 1677.24 400.849C1674.58 403.416 1672.4 406.378 1670.63 409.538C1669.84 410.92 1669.15 412.303 1668.65 413.685C1668.36 414.277 1668.45 414.475 1669.15 414.376C1669.94 414.277 1670.72 414.08 1671.51 413.981C1673.69 413.586 1675.56 412.697 1677.14 411.118C1679.71 408.649 1681.88 405.786 1683.17 402.428C1683.56 401.244 1683.66 400.059 1683.86 398.775Z" fill="#8b8b8b" fill-rule="nonzero" opacity="1" stroke="none"/>
<path d="M1713.68 436.988C1713.78 435.21 1714.17 433.532 1714.57 431.853C1715.75 426.521 1717.23 421.288 1718.71 416.055C1721.97 405.193 1725.33 394.529 1728.78 383.865C1731.45 375.867 1733.92 367.869 1736.49 359.97C1737.08 358.192 1737.77 356.514 1738.36 354.737C1738.95 353.157 1740.04 352.268 1741.52 351.774C1744.19 350.886 1746.85 350.787 1749.52 351.676C1750.51 351.972 1751.4 352.465 1752.09 353.255C1752.78 353.947 1752.98 354.737 1752.88 355.625C1752.68 356.909 1752.29 358.094 1751.89 359.279C1750.01 364.611 1748.14 369.943 1746.16 375.275C1744.29 380.31 1742.71 385.544 1741.03 390.579C1736.19 404.996 1731.35 419.313 1726.61 433.729C1726.22 434.618 1726.02 435.605 1725.62 436.494C1725.13 438.074 1724.34 439.555 1723.16 440.74C1721.97 441.826 1720.49 442.517 1718.91 442.715C1716.84 442.912 1714.66 441.332 1714.07 439.555C1713.87 438.765 1713.68 437.876 1713.68 436.988ZM1715.36 447.553C1717.63 447.553 1719.7 448.343 1721.68 449.725C1723.35 450.811 1724.24 452.49 1724.64 454.465C1724.84 455.156 1724.64 455.847 1724.34 456.44C1723.75 457.921 1722.86 459.303 1721.68 460.389C1720.1 462.068 1718.02 462.66 1715.75 462.66C1714.07 462.66 1712.49 462.265 1710.91 461.574C1708.64 460.587 1707.06 459.007 1706.57 456.44C1706.47 455.452 1706.57 454.465 1706.86 453.576C1708.25 450.022 1710.81 447.553 1715.36 447.553Z" fill="#8b8b8b" fill-rule="nonzero" opacity="1" stroke="none"/>
</g>
<g fill="#303030" opacity="1" stroke="none" vectornator:layerName="Text 1"/>
</g>
</svg>
