<?xml version="1.0" encoding="UTF-8" standalone="no"?>
<!DOCTYPE svg PUBLIC "-//W3C//DTD SVG 1.1//EN" "http://www.w3.org/Graphics/SVG/1.1/DTD/svg11.dtd">
<!-- Created with Vectornator (http://vectornator.io/) -->
<svg height="100%" stroke-miterlimit="10" style="fill-rule:nonzero;clip-rule:evenodd;stroke-linecap:round;stroke-linejoin:round;" version="1.1" viewBox="0 0 415.765 511.227" width="100%" xml:space="preserve" xmlns="http://www.w3.org/2000/svg" xmlns:vectornator="http://vectornator.io" xmlns:xlink="http://www.w3.org/1999/xlink">
<defs>
<linearGradient gradientTransform="matrix(1.60672 0 0 1.60672 -98.6571 -177.698)" gradientUnits="userSpaceOnUse" id="LinearGradient" x1="63.6235" x2="317.26" y1="113.706" y2="428.862">
<stop offset="0.00828655" stop-color="#ff00da"/>
<stop offset="0.663598" stop-color="#8e00ff"/>
<stop offset="1" stop-color="#2500ff"/>
</linearGradient>
<linearGradient gradientTransform="matrix(1.60672 0 0 1.60672 -98.6608 -177.698)" gradientUnits="userSpaceOnUse" id="LinearGradient_2" x1="76.0034" x2="308.374" y1="127.085" y2="421.961">
<stop offset="0.00828655" stop-color="#ff00da"/>
<stop offset="0.663598" stop-color="#8e00ff"/>
<stop offset="1" stop-color="#2500ff"/>
</linearGradient>
<linearGradient gradientTransform="matrix(1.60672 0 0 1.60672 -127.481 -160.599)" gradientUnits="userSpaceOnUse" id="LinearGradient_3" x1="76.0034" x2="308.374" y1="127.085" y2="421.961">
<stop offset="0.00828655" stop-color="#ff00da"/>
<stop offset="0.663598" stop-color="#8e00ff"/>
<stop offset="1" stop-color="#2500ff"/>
</linearGradient>
<linearGradient gradientTransform="matrix(1.60672 0 0 1.60672 -69.8403 -162.033)" gradientUnits="userSpaceOnUse" id="LinearGradient_4" x1="76.0034" x2="308.374" y1="127.085" y2="421.961">
<stop offset="0.00828655" stop-color="#ff00da"/>
<stop offset="0.663598" stop-color="#8e00ff"/>
<stop offset="1" stop-color="#2500ff"/>
</linearGradient>
<linearGradient gradientTransform="matrix(1.60672 0 0 1.60672 -98.3644 -180.003)" gradientUnits="userSpaceOnUse" id="LinearGradient_5" x1="69.9477" x2="307.614" y1="122.431" y2="423.905">
<stop offset="0.00828655" stop-color="#ff00da"/>
<stop offset="0.663598" stop-color="#8e00ff"/>
<stop offset="1" stop-color="#2500ff"/>
</linearGradient>
<linearGradient gradientTransform="matrix(2.31126 0 0 2.31126 -220.098 -341.942)" gradientUnits="userSpaceOnUse" id="LinearGradient_6" x1="107.085" x2="268.703" y1="157.69" y2="364.833">
<stop offset="0.00828655" stop-color="#ff00da"/>
<stop offset="0.663598" stop-color="#8e00ff"/>
<stop offset="1" stop-color="#2500ff"/>
</linearGradient>
<linearGradient gradientTransform="matrix(2.31126 0 0 2.31126 -220.098 -341.942)" gradientUnits="userSpaceOnUse" id="LinearGradient_7" x1="110.555" x2="268.985" y1="159.674" y2="363.52">
<stop offset="0.00828655" stop-color="#ff00da"/>
<stop offset="0.663598" stop-color="#8e00ff"/>
<stop offset="1" stop-color="#2500ff"/>
</linearGradient>
<linearGradient gradientTransform="matrix(2.31126 0 0 2.31126 -220.098 -341.942)" gradientUnits="userSpaceOnUse" id="LinearGradient_8" x1="109.218" x2="265.919" y1="157.353" y2="363.221">
<stop offset="0.00828655" stop-color="#ff00da"/>
<stop offset="0.663598" stop-color="#8e00ff"/>
<stop offset="1" stop-color="#2500ff"/>
</linearGradient>
<linearGradient gradientTransform="matrix(8.52733 0 0 8.52733 -3139.92 -366.264)" gradientUnits="userSpaceOnUse" id="LinearGradient_9" x1="336.121" x2="389.32" y1="103.708" y2="158.888">
<stop offset="0.00828655" stop-color="#ff00da"/>
<stop offset="0.663598" stop-color="#8e00ff"/>
<stop offset="1" stop-color="#2500ff"/>
</linearGradient>
<linearGradient gradientTransform="matrix(8.52733 0 0 8.52733 -3139.92 -366.264)" gradientUnits="userSpaceOnUse" id="LinearGradient_10" x1="337.429" x2="388.976" y1="109.688" y2="154.948">
<stop offset="0.00828655" stop-color="#ff00da"/>
<stop offset="0.663598" stop-color="#8e00ff"/>
<stop offset="1" stop-color="#2500ff"/>
</linearGradient>
<linearGradient gradientTransform="matrix(8.52733 0 0 8.52733 -3139.92 -366.264)" gradientUnits="userSpaceOnUse" id="LinearGradient_11" x1="342.566" x2="390.881" y1="104.027" y2="161.42">
<stop offset="0.00828655" stop-color="#ff00da"/>
<stop offset="0.663598" stop-color="#8e00ff"/>
<stop offset="1" stop-color="#2500ff"/>
</linearGradient>
</defs>
<clipPath id="ArtboardFrame">
<rect height="511.227" width="415.765" x="0" y="0"/>
</clipPath>
<g clip-path="url(#ArtboardFrame)" id="Capa-1" vectornator:layerName="Capa 1">
<g opacity="1" vectornator:layerName="Grupo 3">
<path d="M313.471 584.701L319.467 584.701L320.257 586.56C320.381 586.808 320.489 587.04 320.582 587.257C320.675 587.474 320.768 587.707 320.861 587.955L314.865 587.955L313.471 584.701ZM305.477 564.67C305.973 563.399 306.476 562.145 306.988 560.905C307.499 559.666 308.002 558.411 308.498 557.141L318.955 583.167L296.368 583.167L295.252 585.91L294.416 587.955L288.42 587.955L294.648 572.431L300.922 556.769L306.964 556.769L304.269 563.461L298.645 577.544L310.59 577.544L305.477 564.67Z" fill="#303030" fill-rule="nonzero" opacity="1" stroke="none"/>
<path d="M338.801 582.982C340.753 582.672 342.55 581.959 344.192 580.844L348.607 587.955L341.961 587.955L338.801 582.982ZM336.523 556.722C338.227 556.722 339.839 557.048 341.357 557.698C342.875 558.349 344.192 559.24 345.307 560.371C346.423 561.502 347.306 562.826 347.957 564.344C348.607 565.863 348.933 567.474 348.933 569.178C348.933 570.913 348.607 572.532 347.957 574.035C347.306 575.538 346.423 576.847 345.307 577.962C344.192 579.078 342.875 579.961 341.357 580.611C339.839 581.262 338.227 581.587 336.523 581.587L328.158 581.587L328.158 587.955L322.487 587.955L322.487 575.917L336.523 575.917C337.453 575.917 338.328 575.739 339.149 575.383C339.97 575.026 340.683 574.546 341.287 573.942C341.891 573.338 342.372 572.625 342.728 571.804C343.084 570.983 343.262 570.108 343.262 569.178C343.262 568.249 343.084 567.373 342.728 566.552C342.372 565.731 341.891 565.011 341.287 564.391C340.683 563.771 339.97 563.283 339.149 562.927C338.328 562.571 337.453 562.392 336.523 562.392L328.158 562.392L328.158 574.383L322.487 574.383L322.487 556.722L336.523 556.722Z" fill="#303030" fill-rule="nonzero" opacity="1" stroke="none"/>
<path d="M361.202 564.995C360.087 565.987 359.25 567.125 358.693 568.411C358.135 569.697 357.856 571.037 357.856 572.431C357.856 573.609 358.065 574.755 358.483 575.871C358.902 576.986 359.56 578.04 360.459 579.031L360.412 579.031C361.342 580.115 362.457 580.937 363.759 581.494C365.06 582.052 366.408 582.331 367.802 582.331C368.979 582.331 370.141 582.122 371.288 581.703C372.434 581.285 373.503 580.627 374.495 579.728L375.006 579.217L377.423 581.448C377.732 581.727 378.011 582.006 378.259 582.284C378.507 582.563 378.801 582.842 379.142 583.121L378.817 583.446L378.306 584.004L378.306 583.958C376.818 585.228 375.153 586.219 373.309 586.932C371.466 587.645 369.646 588.001 367.848 588.001C365.711 588.001 363.627 587.567 361.597 586.7C359.568 585.832 357.763 584.546 356.183 582.842C354.851 581.355 353.859 579.72 353.208 577.939C352.558 576.157 352.232 574.321 352.232 572.431C352.232 570.293 352.674 568.202 353.557 566.157C354.44 564.112 355.718 562.3 357.391 560.719L357.391 560.766C358.879 559.495 360.536 558.512 362.364 557.815C364.192 557.117 365.989 556.769 367.756 556.769C369.8 556.769 371.845 557.195 373.89 558.047C375.935 558.899 377.717 560.1 379.235 561.649C378.801 562.052 378.36 562.454 377.911 562.857C377.461 563.26 377.035 563.632 376.632 563.973C376.385 564.221 376.121 564.476 375.842 564.74C375.564 565.003 375.285 565.259 375.006 565.506C374.014 564.546 372.876 563.787 371.59 563.229C370.304 562.671 369.041 562.392 367.802 562.392C366.625 562.392 365.47 562.609 364.339 563.043C363.209 563.477 362.163 564.128 361.202 564.995Z" fill="#303030" fill-rule="nonzero" opacity="1" stroke="none"/>
<path d="M405.308 584.701L411.304 584.701L412.094 586.56C412.218 586.808 412.326 587.04 412.419 587.257C412.512 587.474 412.605 587.707 412.698 587.955L406.703 587.955L405.308 584.701ZM397.314 564.67C397.81 563.399 398.314 562.145 398.825 560.905C399.336 559.666 399.84 558.411 400.335 557.141L410.793 583.167L388.205 583.167L387.09 585.91L386.253 587.955L380.258 587.955L386.485 572.431L392.76 556.769L398.802 556.769L396.106 563.461L390.482 577.544L402.427 577.544L397.314 564.67Z" fill="#303030" fill-rule="nonzero" opacity="1" stroke="none"/>
<path d="M428.361 556.722C430.065 556.722 431.676 557.048 433.194 557.698C434.713 558.349 436.029 559.232 437.145 560.348C438.26 561.463 439.143 562.78 439.794 564.298C440.445 565.816 440.77 567.427 440.77 569.132L440.77 575.545C440.77 577.28 440.445 578.899 439.794 580.402C439.143 581.905 438.26 583.214 437.145 584.329C436.029 585.445 434.713 586.328 433.194 586.979C431.676 587.629 430.065 587.955 428.361 587.955L414.325 587.955L414.325 563.926L419.995 563.926L419.995 582.284L428.361 582.284C429.29 582.284 430.166 582.106 430.987 581.75C431.808 581.394 432.52 580.913 433.125 580.309C433.729 579.705 434.209 578.992 434.565 578.171C434.922 577.35 435.1 576.475 435.1 575.545L435.1 569.132C435.1 568.202 434.922 567.327 434.565 566.506C434.209 565.685 433.729 564.972 433.125 564.368C432.52 563.764 431.808 563.283 430.987 562.927C430.166 562.571 429.29 562.392 428.361 562.392L414.325 562.392L414.325 556.722L428.361 556.722Z" fill="#303030" fill-rule="nonzero" opacity="1" stroke="none"/>
<path d="M451.413 576.707L451.413 582.331L468.981 582.331L468.981 587.955L445.743 587.955L445.743 576.707L451.413 576.707ZM468.981 556.769L468.981 562.392L451.413 562.392L451.413 569.55L467.401 569.55L467.401 575.173L445.743 575.173L445.743 556.769L468.981 556.769Z" fill="#303030" fill-rule="nonzero" opacity="1" stroke="none"/>
</g>
<path d="M593.121 501.626L624.933 501.626L609.043 474.981L593.121 501.626Z" fill="#5e5e5e" fill-rule="nonzero" opacity="1" stroke="none"/>
<path d="M590.099 506.695L585.453 514.461L632.602 514.461L627.955 506.695L590.099 506.695Z" fill="#5e5e5e" fill-rule="nonzero" opacity="1" stroke="none"/>
<g opacity="1" vectornator:layerName="Grupo 4">
<path d="M8.32283 3.44542L8.30675 97.9579C8.30662 98.7485 8.89185 99.6503 9.61391 99.9722L24.5768 106.643L40.9952 114.133C41.8247 114.503 42.4978 115.539 42.4986 116.447L33.9938 381.44C33.9938 381.44 14.9807 441.538 12.8554 449.625C10.73 457.711 9.61279 462.933 9.49132 465.24C9.36984 467.548 13.2568 509.225 13.2571 509.224L404.191 509.224C404.191 509.224 407.577 469.26 407.455 466.344C407.334 463.429 406.217 457.76 404.091 449.374C401.966 440.987 383.957 382.945 383.957 382.946L372.12 119.042C372.123 118.133 372.782 117.062 373.59 116.648L391.266 107.655L406.051 100.093C406.755 99.7332 407.324 98.8005 407.322 98.0099L407.107 4.53928C407.105 3.74872 406.463 3.10428 405.672 3.09988L397.818 3.05611L208.875 2.00324L9.7545 2.01391C8.96395 2.01396 8.32297 2.65486 8.32283 3.44542ZM378.377 36.2405L378.34 72.6494C378.336 76.3897 375.301 79.4219 371.561 79.4219L334.4 79.4219L42.2223 79.4219C38.482 79.4219 35.4498 76.3897 35.4498 72.6494L35.4498 36.2907C35.4498 32.5504 38.482 29.5178 42.2223 29.5173L371.611 29.469C375.351 29.4685 378.38 32.5002 378.377 36.2405ZM96.5099 137.931L318.153 138.419C326.824 138.419 333.819 145.414 333.819 154.084L340.753 328.604C340.753 337.274 333.758 344.32 325.087 344.32L152.238 343.832C163.686 350.911 171.368 363.428 171.368 377.774C171.368 381.183 170.822 384.406 170.012 387.565C171.797 387.544 178.314 387.565 179 387.565L178.95 387.615C194.014 387.615 209.011 387.672 223.988 387.766C238.966 387.86 253.912 387.967 268.976 387.967C299.104 387.967 322.121 388.161 337.613 388.368C353.104 388.576 361.06 388.821 361.061 388.82C361.061 388.82 362.518 393.429 364.676 400.469C366.835 407.509 369.714 416.981 372.509 426.578C375.303 436.175 377.43 443.666 378.886 449.072C380.341 454.478 381.123 457.799 381.245 459.014L381.446 460.821L381.597 462.679L294.884 462.478L208.122 462.328L121.409 462.127L34.6465 461.976C36.408 455.902 38.1632 449.827 39.9185 443.75C41.6738 437.674 43.4291 431.598 45.1906 425.524C48.7136 413.376 51.4418 404.162 53.3246 397.959C55.2074 391.755 56.2451 388.562 56.4878 388.318C56.7308 388.075 58.7775 387.881 62.6134 387.766C66.4491 387.651 72.0732 387.616 79.4839 387.615C80.3847 387.615 88.9204 387.644 91.8858 387.615C91.0687 384.442 90.53 381.2 90.5301 377.774C90.5301 363.431 98.2158 350.911 109.66 343.832L89.5761 343.832C80.9058 343.832 73.8603 336.787 73.8604 328.117L80.7942 153.597C80.7942 144.926 87.8396 137.931 96.5099 137.931Z" fill="url(#LinearGradient)" fill-rule="nonzero" opacity="1" stroke="none" vectornator:layerName="Curva 6"/>
<path d="M278.344 408.902C274.389 408.902 270.786 409.741 268.172 411.14C265.559 412.538 263.933 414.496 263.933 416.735C263.933 418.973 265.559 420.932 268.172 422.33C270.786 423.729 274.389 424.568 278.344 424.568C282.299 424.568 285.901 423.729 288.515 422.33C291.129 420.932 292.754 418.973 292.754 416.735C292.754 414.496 291.129 412.538 288.515 411.14C285.901 409.741 282.299 408.902 278.344 408.902Z" fill="url(#LinearGradient_2)" fill-rule="nonzero" opacity="1" stroke="none" vectornator:layerName="Curva 10"/>
<path d="M249.523 426.001C245.568 426.001 241.966 426.84 239.352 428.239C236.738 429.637 235.113 431.595 235.113 433.834C235.113 436.072 236.738 438.031 239.352 439.429C241.966 440.828 245.568 441.667 249.523 441.667C253.478 441.667 257.081 440.828 259.694 439.429C262.308 438.031 263.933 436.072 263.933 433.834C263.933 431.595 262.308 429.637 259.694 428.239C257.081 426.84 253.478 426.001 249.523 426.001Z" fill="url(#LinearGradient_3)" fill-rule="nonzero" opacity="1" stroke="none" vectornator:layerName="Curva 11"/>
<path d="M307.164 424.568C303.209 424.568 299.607 425.407 296.993 426.805C294.379 428.204 292.754 430.162 292.754 432.4C292.754 434.639 294.379 436.597 296.993 437.996C299.607 439.394 303.209 440.233 307.164 440.233C311.119 440.233 314.722 439.394 317.335 437.996C319.949 436.597 321.574 434.639 321.574 432.4C321.574 430.162 319.949 428.204 317.335 426.805C314.722 425.407 311.119 424.568 307.164 424.568Z" fill="url(#LinearGradient_4)" fill-rule="nonzero" opacity="1" stroke="none" vectornator:layerName="Curva 3"/>
<path d="M131.458 356.324C120.858 356.324 112.278 364.905 112.278 375.504C112.278 383.81 117.598 390.706 124.981 393.379L124.981 423.304C111.142 424.72 98.5708 430.397 88.7978 439.255L173.685 439.271C163.923 430.424 151.402 424.729 137.584 423.304L137.584 393.429C145.139 390.85 150.638 383.933 150.638 375.504C150.638 364.905 142.058 356.324 131.458 356.324Z" fill="url(#LinearGradient_5)" fill-rule="nonzero" opacity="1" stroke="none" vectornator:layerName="Curva 2"/>
<path d="M188.851 268.375L259.561 268.375L224.242 209.149L188.851 268.375Z" fill="url(#LinearGradient_6)" fill-rule="nonzero" opacity="1" stroke="none" vectornator:layerName="Curva 7"/>
<path d="M182.134 279.642L171.805 296.904L276.606 296.904L266.278 279.642L182.134 279.642Z" fill="url(#LinearGradient_7)" fill-rule="nonzero" opacity="1" stroke="none" vectornator:layerName="Curva 8"/>
<path d="M207.846 181.702L156.204 268.375L149.487 279.642L139.159 296.904L158.588 296.904L168.916 279.642L175.633 268.375L217.597 198.098L207.846 181.702Z" fill="url(#LinearGradient_8)" fill-rule="nonzero" opacity="1" stroke="none" vectornator:layerName="Curva 9"/>
</g>
<g opacity="1" vectornator:layerName="Grupo 5">
<path d="M-159.656 878.694L111.614 878.694L-23.8824 651.482L-159.656 878.694Z" fill="url(#LinearGradient_9)" fill-rule="nonzero" opacity="1" stroke="none" vectornator:layerName="Curva 1"/>
<path d="M-185.425 921.92L-225.049 988.144L177.007 988.144L137.383 921.92L-185.425 921.92Z" fill="url(#LinearGradient_10)" fill-rule="nonzero" opacity="1" stroke="none" vectornator:layerName="Curva 2"/>
<path d="M-86.7815 546.188L-284.9 878.694L-310.669 921.92L-350.293 988.144L-275.756 988.144L-236.132 921.92L-210.363 878.694L-49.3745 609.087L-86.7815 546.188Z" fill="url(#LinearGradient_11)" fill-rule="nonzero" opacity="1" stroke="none" vectornator:layerName="Curva 3"/>
</g>
<path d="M601.667 462.633L578.434 501.626L575.412 506.695L570.765 514.461L579.506 514.461L584.153 506.695L587.175 501.626L606.054 470.009L601.667 462.633Z" fill="#5e5e5e" fill-rule="nonzero" opacity="1" stroke="none"/>
<g opacity="1" vectornator:layerName="Grupo 2">
<path d="M311.372 604.923C311.74 604.539 312.076 604.155 312.412 603.771C312.748 603.419 313.084 603.083 313.42 602.747C313.98 602.219 314.588 601.723 315.212 601.259C315.756 600.859 316.332 600.491 316.988 600.235C317.404 600.059 317.852 599.963 318.316 599.995C318.572 600.011 318.812 600.059 319.052 600.171C319.565 600.395 319.789 600.811 319.805 601.339C319.837 601.883 319.693 602.411 319.501 602.907C319.197 603.755 318.716 604.507 318.124 605.211C317.724 605.675 317.292 606.091 316.796 606.475C316.764 606.507 316.732 606.523 316.716 606.587C316.764 606.619 316.828 606.603 316.892 606.603C317.468 606.651 318.044 606.715 318.588 606.939C318.924 607.067 319.245 607.227 319.549 607.451C320.077 607.867 320.365 608.411 320.461 609.067C320.525 609.595 320.461 610.107 320.381 610.603C320.141 612.108 319.453 613.388 318.46 614.524C317.788 615.308 316.956 615.932 316.028 616.396C314.988 616.924 313.868 617.244 312.7 617.372C311.484 617.5 310.3 617.372 309.148 616.988C308.684 616.828 308.236 616.62 307.836 616.316C307.612 616.14 307.42 615.932 307.26 615.692C306.876 615.084 306.924 614.492 307.42 613.98C307.788 613.564 308.236 613.26 308.748 613.052C309.484 612.748 310.236 612.572 311.02 612.444C311.628 612.332 312.252 612.284 312.876 612.3C313.388 612.332 313.884 612.396 314.348 612.572C314.668 612.7 314.956 612.86 315.164 613.132C315.308 613.324 315.356 613.516 315.26 613.724C315.148 613.948 314.972 614.06 314.732 614.092C314.508 614.108 314.3 614.044 314.108 613.932C313.98 613.852 313.852 613.772 313.756 613.676C313.5 613.42 313.196 613.356 312.86 613.34C312.428 613.324 312.012 613.388 311.58 613.452C311.244 613.516 310.908 613.596 310.588 613.692C310.204 613.804 309.852 613.98 309.532 614.236C309.42 614.316 309.324 614.412 309.244 614.524C309.084 614.78 309.084 615.052 309.26 615.292C309.404 615.5 309.628 615.644 309.852 615.756C310.284 615.948 310.732 616.028 311.196 616.092C311.772 616.172 312.332 616.076 312.876 615.9C313.388 615.724 313.884 615.548 314.348 615.292C314.94 614.956 315.452 614.524 315.9 614.028C316.444 613.452 316.876 612.828 317.196 612.108C317.5 611.452 317.676 610.779 317.82 610.075C317.852 609.851 317.9 609.627 317.932 609.387C317.996 608.971 317.9 608.587 317.708 608.203C317.564 607.931 317.324 607.755 316.988 607.707C316.54 607.643 316.092 607.675 315.66 607.723C315.228 607.771 314.812 607.851 314.396 607.947C314.188 607.995 313.98 608.043 313.772 608.123C313.5 608.235 313.228 608.315 312.956 608.347C312.7 608.379 312.46 608.347 312.204 608.267C312.092 608.235 311.996 608.171 311.9 608.091C311.74 607.963 311.74 607.755 311.884 607.595C311.964 607.515 312.076 607.483 312.172 607.419C313.036 607.003 313.884 606.555 314.636 605.947C315.196 605.499 315.644 604.971 316.06 604.395C316.572 603.675 316.972 602.907 317.244 602.059C317.308 601.883 317.356 601.691 317.388 601.483C317.404 601.435 317.404 601.371 317.404 601.323C317.404 601.227 317.388 601.211 317.292 601.243C317.244 601.259 317.196 601.291 317.148 601.323C316.476 601.659 315.868 602.075 315.292 602.555C314.732 603.019 314.204 603.531 313.692 604.059C312.828 604.971 312.028 605.963 311.292 606.987C310.428 608.203 309.628 609.435 308.86 610.715C308.812 610.795 308.748 610.859 308.7 610.939C308.556 611.211 308.332 611.34 308.028 611.388C307.788 611.42 307.532 611.42 307.292 611.34C306.956 611.227 306.828 611.035 306.844 610.683C306.844 610.571 306.86 610.459 306.876 610.347C307.068 609.275 307.308 608.235 307.66 607.195C307.868 606.523 308.156 605.883 308.444 605.243C308.86 604.331 309.308 603.435 309.772 602.539C310.14 601.835 310.524 601.131 310.94 600.443C310.956 600.411 310.972 600.379 310.988 600.347C311.164 600.043 311.42 599.883 311.756 599.835C312.044 599.803 312.316 599.819 312.588 599.931C312.908 600.059 313.068 600.299 313.036 600.667C313.004 600.955 312.908 601.227 312.828 601.499C312.604 602.203 312.316 602.891 312.012 603.563C311.804 603.995 311.596 604.411 311.404 604.843C311.388 604.859 311.372 604.891 311.372 604.923Z" fill="#8b8b8b" fill-rule="nonzero" opacity="1" stroke="none"/>
<path d="M326.957 610.891C326.813 611.099 326.669 611.324 326.525 611.532C326.205 611.98 325.901 612.412 325.581 612.86C325.437 613.052 325.261 613.244 325.069 613.404C324.765 613.66 324.413 613.82 324.013 613.868C323.645 613.916 323.277 613.9 322.909 613.772C322.285 613.564 321.949 613.084 321.757 612.492C321.645 612.14 321.629 611.772 321.661 611.404C321.725 610.459 322.013 609.563 322.381 608.699C322.573 608.267 322.829 607.883 323.117 607.515C323.389 607.163 323.677 606.827 324.013 606.539C324.509 606.123 325.085 605.899 325.709 605.787C326.205 605.723 326.701 605.739 327.181 605.819C327.597 605.899 327.949 606.075 328.221 606.395C328.253 606.427 328.269 606.459 328.301 606.491C328.381 606.587 328.397 606.571 328.461 606.475C328.509 606.395 328.557 606.315 328.605 606.251C328.701 606.107 328.797 605.979 328.941 605.883C329.277 605.659 329.661 605.627 330.045 605.675C330.237 605.691 330.397 605.755 330.541 605.851C330.701 605.963 330.765 606.107 330.765 606.283C330.765 606.443 330.733 606.587 330.685 606.715C330.605 606.923 330.525 607.131 330.445 607.323C330.285 607.771 330.109 608.219 329.933 608.667C329.837 608.891 329.789 609.115 329.725 609.339C329.581 609.883 329.357 610.379 329.213 610.923C329.037 611.5 328.909 612.092 328.925 612.7C328.925 612.78 328.941 612.876 328.957 612.972C328.973 613.052 329.005 613.068 329.069 613.02C329.165 612.972 329.229 612.908 329.293 612.844C329.661 612.508 329.965 612.108 330.253 611.708C330.781 611.019 331.309 610.315 331.837 609.627C331.997 609.419 332.173 609.275 332.413 609.211C332.525 609.179 332.621 609.163 332.717 609.243C332.797 609.355 332.781 609.467 332.733 609.563C332.653 609.771 332.525 609.931 332.413 610.107C331.853 610.923 331.245 611.692 330.653 612.476C330.429 612.78 330.221 613.1 329.949 613.356C329.453 613.836 328.845 613.996 328.173 613.82C327.581 613.66 327.213 613.26 327.037 612.668C326.925 612.3 326.925 611.9 326.957 611.516C326.973 611.307 326.973 611.099 326.989 610.907C326.989 610.891 326.973 610.891 326.957 610.891ZM327.661 608.059C327.405 607.947 327.325 607.755 327.229 607.563C327.149 607.387 327.069 607.227 326.973 607.083C326.733 606.731 326.557 606.699 326.189 606.939C326.157 606.971 326.125 606.987 326.093 607.019C325.821 607.259 325.581 607.531 325.389 607.835C325.069 608.379 324.797 608.955 324.589 609.547C324.317 610.315 324.173 611.099 324.093 611.9C324.061 612.14 324.013 612.38 324.077 612.62C324.093 612.684 324.061 612.764 324.141 612.78C324.205 612.812 324.237 612.732 324.285 612.684C324.621 612.364 324.893 611.98 325.165 611.596C325.741 610.747 326.301 609.883 326.861 609.003C327.069 608.667 327.261 608.315 327.661 608.059Z" fill="#8b8b8b" fill-rule="nonzero" opacity="1" stroke="none"/>
<path d="M334.286 613.948C333.982 613.964 333.661 613.932 333.357 613.852C332.525 613.644 331.997 613.116 331.725 612.3C331.485 611.532 331.501 610.779 331.725 610.011C332.077 608.827 332.701 607.787 333.613 606.939C334.302 606.299 335.118 605.899 336.062 605.755C336.59 605.675 337.102 605.659 337.63 605.787C338.11 605.915 338.494 606.171 338.782 606.587C338.942 606.843 339.022 607.115 339.022 607.435C339.022 608.091 338.782 608.651 338.318 609.099C337.854 609.547 337.278 609.627 336.67 609.435C336.59 609.419 336.526 609.371 336.462 609.323C336.286 609.195 336.254 609.035 336.35 608.843C336.398 608.747 336.478 608.667 336.558 608.571C336.894 608.139 336.958 607.659 336.846 607.147C336.798 606.923 336.766 606.923 336.59 607.035C336.158 607.307 335.774 607.627 335.47 608.027C334.798 608.923 334.318 609.915 334.078 611.019C333.998 611.452 333.95 611.884 334.03 612.316C334.062 612.508 334.126 612.7 334.238 612.876C334.334 613.02 334.446 613.084 334.622 613.1C335.118 613.116 335.582 612.972 336.014 612.764C336.494 612.524 336.942 612.252 337.374 611.948C338.302 611.259 339.214 610.555 340.142 609.867C340.334 609.707 340.542 609.579 340.798 609.531C340.894 609.515 340.99 609.499 341.07 609.531C341.23 609.579 341.294 609.707 341.214 609.867C341.166 609.963 341.102 610.043 341.022 610.107C340.622 610.475 340.206 610.811 339.774 611.163C339.022 611.788 338.222 612.364 337.406 612.908C336.606 613.468 335.726 613.852 334.734 613.948C334.59 613.964 334.446 613.948 334.286 613.948Z" fill="#8b8b8b" fill-rule="nonzero" opacity="1" stroke="none"/>
<path d="M343.55 609.931C343.406 610.043 343.294 610.203 343.166 610.347C342.894 610.683 342.622 611.019 342.318 611.324C342.27 611.388 342.222 611.468 342.19 611.548C342.062 611.9 341.95 612.268 341.774 612.62C341.63 612.908 341.518 613.228 341.342 613.516C341.23 613.708 341.07 613.82 340.862 613.884C340.526 613.996 340.19 613.996 339.854 613.884C339.742 613.852 339.662 613.804 339.582 613.74C339.47 613.66 339.422 613.564 339.422 613.436C339.406 613.292 339.422 613.164 339.454 613.036C339.726 611.9 340.126 610.827 340.494 609.723C340.942 608.427 341.406 607.131 341.854 605.835C342.478 604.091 343.086 602.347 343.662 600.603C343.822 600.123 343.998 599.659 344.19 599.195C344.35 598.763 344.67 598.571 345.102 598.507C345.422 598.459 345.726 598.475 346.046 598.587C346.11 598.603 346.174 598.635 346.238 598.667C346.494 598.811 346.558 598.955 346.51 599.243C346.462 599.483 346.398 599.723 346.318 599.947C345.55 602.075 344.782 604.203 344.046 606.347C343.806 607.003 343.582 607.643 343.358 608.315C343.342 608.363 343.31 608.395 343.342 608.459C343.39 608.443 343.422 608.395 343.454 608.363C343.87 607.899 344.334 607.483 344.798 607.051C345.086 606.779 345.374 606.507 345.71 606.267C346.062 605.979 346.446 605.739 346.878 605.563C347.342 605.371 347.806 605.339 348.286 605.483C348.863 605.659 349.119 606.091 348.991 606.683C348.911 607.099 348.718 607.467 348.478 607.819C348.03 608.507 347.39 608.971 346.638 609.291C346.51 609.355 346.366 609.403 346.222 609.467C346.126 609.499 346.094 609.547 346.11 609.643C346.142 609.931 346.158 610.235 346.19 610.523C346.254 610.971 346.286 611.42 346.318 611.868C346.334 612.14 346.366 612.412 346.398 612.7C346.414 612.828 346.462 612.956 346.51 613.084C346.542 613.148 346.59 613.164 346.654 613.116C346.83 613.004 346.99 612.876 347.15 612.732C347.406 612.476 347.646 612.204 347.886 611.932C348.494 611.275 349.055 610.587 349.647 609.915C349.791 609.739 349.983 609.595 350.223 609.595C350.495 609.579 350.607 609.739 350.463 609.979C350.335 610.219 350.159 610.427 349.999 610.635C349.455 611.34 348.879 612.012 348.286 612.668C348.046 612.924 347.854 613.196 347.614 613.436C346.942 614.076 345.95 614.076 345.326 613.644C345.07 613.468 344.846 613.26 344.67 613.004C344.11 612.156 343.726 611.243 343.582 610.235C343.582 610.187 343.582 610.139 343.582 610.075C343.566 610.027 343.582 609.979 343.55 609.931ZM344.942 608.475C345.598 608.251 346.062 607.771 346.414 607.195C345.87 607.563 345.39 608.011 344.942 608.475Z" fill="#8b8b8b" fill-rule="nonzero" opacity="1" stroke="none"/>
<path d="M355.823 613.02C355.919 613.004 355.967 612.956 356.015 612.908C356.399 612.556 356.719 612.156 357.039 611.756C357.519 611.179 357.999 610.619 358.495 610.075C358.623 609.947 358.735 609.803 358.879 609.691C358.991 609.611 359.119 609.547 359.263 609.547C359.455 609.531 359.583 609.675 359.535 609.867C359.503 609.995 359.439 610.107 359.359 610.203C359.087 610.571 358.799 610.923 358.511 611.291C357.983 611.964 357.407 612.62 356.879 613.292C356.639 613.596 356.351 613.868 355.983 614.028C355.519 614.236 355.055 614.252 354.575 614.06C354.303 613.948 354.111 613.756 353.967 613.484C353.695 612.956 353.615 612.38 353.663 611.788C353.759 610.859 353.967 609.979 354.239 609.099C354.415 608.539 354.511 607.963 354.671 607.403C355.215 605.499 355.487 604.603 355.743 603.707C355.807 603.499 355.807 603.531 355.583 603.531C348.799 603.643 348.237 604.139 347.645 604.379C347.421 604.475 347.197 604.587 347.005 604.731C346.893 604.811 346.893 604.827 346.989 604.923C347.101 605.035 347.085 605.099 346.973 605.195C346.861 605.291 346.717 605.323 346.573 605.323C346.14 605.275 345.772 605.099 345.484 604.779C345.228 604.491 345.196 604.219 345.372 603.899C345.516 603.627 345.724 603.435 345.964 603.259C346.332 603.003 346.749 602.827 347.165 602.699C347.757 602.539 348.349 602.459 348.957 602.411C349.309 602.395 349.615 602.075 356.143 602.075C356.271 602.075 356.351 602.043 356.399 601.899C356.559 601.515 357.455 599.771 357.455 599.771C357.551 599.595 357.679 599.419 357.823 599.275C357.951 599.147 358.079 599.067 358.239 599.019C358.591 598.923 358.959 598.923 359.295 599.051C359.647 599.163 359.775 599.387 359.727 599.739C359.679 600.107 359.567 600.459 359.423 600.795L359.087 601.659C359.039 601.771 358.991 601.883 358.959 601.979C358.895 602.155 358.895 602.171 359.087 602.187C359.247 602.203 359.391 602.235 359.551 602.235C362.853 602.188 362.961 602.092 363.601 602.316C363.889 602.428 363.041 603.244 362.561 603.18C360.116 603.354 360.555 603.323 358.745 603.374C358.425 603.358 358.463 603.355 358.367 603.627C357.791 605.339 356.975 608.043 356.447 609.755C356.271 610.363 356.079 610.955 355.967 611.564C355.903 611.964 355.855 612.348 355.823 612.732C355.807 612.828 355.807 612.924 355.823 613.02Z" fill="#8b8b8b" fill-rule="nonzero" opacity="1" stroke="none"/>
<path d="M358.607 611.131C358.623 609.947 358.895 608.907 359.455 607.963C359.647 607.659 359.855 607.371 360.127 607.147C360.479 606.875 360.863 606.731 361.295 606.747C361.407 606.747 361.487 606.715 361.551 606.635C362.015 605.995 362.671 605.691 363.423 605.579C363.968 605.499 364.512 605.531 365.024 605.739C365.696 606.027 366.064 606.539 366.192 607.243C366.304 607.851 366.272 608.459 366.128 609.051C366.016 609.499 365.904 609.947 365.744 610.379C365.728 610.395 365.728 610.411 365.712 610.443C365.696 610.507 365.728 610.523 365.776 610.523C365.872 610.523 365.968 610.507 366.064 610.491C366.8 610.379 367.52 610.219 368.208 609.963C368.448 609.867 368.672 609.771 368.896 609.691C369.04 609.627 369.184 609.611 369.328 609.579C369.392 609.579 369.472 609.579 369.552 609.595C369.712 609.643 369.776 609.771 369.68 609.931C369.6 610.075 369.472 610.187 369.312 610.267C369.136 610.363 368.944 610.459 368.752 610.539C368 610.843 367.216 611.019 366.416 611.147C366.096 611.211 365.776 611.243 365.456 611.291C365.376 611.307 365.312 611.34 365.28 611.404C364.992 611.948 364.624 612.444 364.208 612.892C363.664 613.468 363.039 613.948 362.271 614.172C361.327 614.428 360.447 614.3 359.663 613.724C359.279 613.436 359.055 613.052 358.879 612.62C358.687 612.108 358.623 611.58 358.607 611.131ZM361.167 609.755C361.119 610.027 361.103 610.251 361.087 610.475C361.055 611.099 361.135 611.692 361.295 612.3C361.359 612.54 361.439 612.796 361.567 613.02C361.647 613.148 361.663 613.148 361.791 613.084C362.271 612.828 362.671 612.46 363.007 612.044C363.167 611.836 363.327 611.628 363.455 611.404C363.503 611.307 363.503 611.291 363.407 611.259C363.311 611.243 363.215 611.227 363.103 611.195C362.495 611.003 361.951 610.699 361.503 610.203C361.391 610.075 361.295 609.931 361.167 609.755ZM363.119 608.859C363.119 608.907 363.119 608.955 363.119 609.003C363.135 609.371 363.247 609.707 363.455 610.011C363.567 610.155 363.696 610.267 363.856 610.347C363.92 610.395 363.968 610.379 364 610.299C364.016 610.235 364.048 610.155 364.08 610.075C364.192 609.739 364.272 609.387 364.352 609.035C364.416 608.635 364.48 608.219 364.416 607.787C364.368 607.515 364.32 607.243 364.176 606.987C364.144 606.907 364.08 606.843 364.016 606.779C363.968 606.731 363.92 606.731 363.872 606.779C363.824 606.827 363.776 606.875 363.728 606.923C363.311 607.499 363.167 608.171 363.119 608.859Z" fill="#8b8b8b" fill-rule="nonzero" opacity="1" stroke="none"/>
<path d="M375.04 613.02C375.136 613.004 375.184 612.956 375.232 612.908C375.616 612.556 375.936 612.156 376.256 611.756C376.736 611.179 377.216 610.619 377.712 610.075C377.84 609.947 377.952 609.803 378.096 609.691C378.208 609.611 378.336 609.547 378.481 609.547C378.673 609.531 378.801 609.675 378.753 609.867C378.721 609.995 378.657 610.107 378.577 610.203C378.304 610.571 378.016 610.923 377.728 611.291C377.2 611.964 376.624 612.62 376.096 613.292C375.856 613.596 375.568 613.868 375.2 614.028C374.736 614.236 374.272 614.252 373.792 614.06C373.52 613.948 373.328 613.756 373.184 613.484C372.912 612.956 372.832 612.38 372.88 611.788C372.976 610.859 373.184 609.979 373.456 609.099C373.632 608.539 373.728 607.963 373.888 607.403C374.432 605.499 374.704 604.603 374.96 603.707C375.024 603.499 375.024 603.531 374.8 603.531C368.016 603.643 367.408 603.819 366.816 604.059C366.592 604.155 366.368 604.267 366.176 604.411C366.064 604.491 366.064 604.507 366.16 604.603C366.272 604.715 366.256 604.779 366.144 604.875C366.032 604.971 365.888 605.003 365.744 605.003C365.312 604.955 364.944 604.779 364.656 604.459C364.4 604.171 364.368 603.899 364.544 603.579C364.688 603.307 364.896 603.115 365.136 602.939C365.504 602.683 365.92 602.507 366.336 602.379C366.928 602.219 367.52 602.139 368.128 602.091C368.48 602.075 368.832 602.075 375.36 602.075C375.488 602.075 375.568 602.043 375.616 601.899C375.776 601.515 376.672 599.771 376.672 599.771C376.768 599.595 376.896 599.419 377.04 599.275C377.168 599.147 377.296 599.067 377.456 599.019C377.808 598.923 378.176 598.923 378.513 599.051C378.865 599.163 378.993 599.387 378.945 599.739C378.897 600.107 378.785 600.459 378.641 600.795L378.304 601.659C378.256 601.771 378.208 601.883 378.176 601.979C378.112 602.155 378.112 602.171 378.304 602.187C378.465 602.203 378.609 602.235 378.769 602.235C384.625 602.219 385.297 602.331 385.937 602.555C386.225 602.667 386.513 602.811 386.769 603.003C386.881 603.099 386.993 603.211 387.073 603.339C387.233 603.627 387.105 603.867 386.769 603.883C386.609 603.899 386.449 603.867 386.305 603.787C385.873 603.515 385.377 603.483 384.897 603.419C379.121 603.451 378.529 603.419 377.952 603.387C377.632 603.371 377.68 603.355 377.584 603.627C377.008 605.339 376.192 608.043 375.664 609.755C375.488 610.363 375.296 610.955 375.184 611.564C375.12 611.964 375.072 612.348 375.04 612.732C375.024 612.828 375.024 612.924 375.04 613.02Z" fill="#8b8b8b" fill-rule="nonzero" opacity="1" stroke="none"/>
<path d="M381.009 608.283C381.201 608.059 381.377 607.819 381.569 607.611C382.161 606.939 382.769 606.299 383.505 605.771C383.857 605.515 384.225 605.323 384.673 605.259C385.009 605.211 385.345 605.243 385.681 605.371C386.065 605.531 386.321 605.819 386.273 606.395C386.209 607.067 386.001 607.707 385.777 608.331C385.409 609.323 385.041 610.315 384.817 611.356C384.705 611.836 384.609 612.3 384.497 612.78C384.481 612.844 384.465 612.908 384.497 612.988C384.593 612.956 384.657 612.876 384.721 612.812C384.977 612.556 385.217 612.284 385.457 612.012C386.017 611.372 386.561 610.731 387.121 610.091C387.249 609.931 387.377 609.771 387.537 609.627C387.649 609.531 387.777 609.467 387.921 609.435C388.113 609.387 388.241 609.515 388.177 609.707C388.145 609.819 388.065 609.931 388.001 610.027C387.553 610.635 387.057 611.211 386.577 611.804C386.161 612.284 385.729 612.764 385.329 613.26C385.169 613.468 384.993 613.644 384.769 613.788C384.193 614.172 383.345 614.076 382.881 613.58C382.817 613.5 382.753 613.42 382.705 613.324C382.529 612.972 382.433 612.604 382.417 612.204C382.401 610.987 382.625 609.835 383.041 608.715C383.169 608.331 383.313 607.963 383.457 607.595C383.473 607.531 383.521 607.467 383.489 607.387C383.425 607.403 383.377 607.467 383.345 607.499C382.657 608.171 382.001 608.891 381.425 609.659C380.801 610.475 380.225 611.34 379.697 612.22C379.601 612.38 379.505 612.54 379.409 612.7C379.281 612.892 379.185 613.084 379.121 613.308C379.025 613.628 378.769 613.772 378.481 613.868C378.112 613.996 377.728 613.98 377.36 613.852C377.28 613.82 377.216 613.788 377.136 613.74C376.928 613.612 376.832 613.388 376.912 613.148C377.056 612.748 377.152 612.332 377.296 611.932C377.696 610.715 378.096 609.483 378.513 608.267C379.297 606.011 380.081 603.771 380.881 601.531C381.153 600.779 381.425 600.027 381.697 599.275C381.729 599.195 381.761 599.099 381.793 599.019C381.873 598.795 382.017 598.651 382.241 598.571C382.737 598.379 383.233 598.363 383.729 598.571C383.793 598.603 383.857 598.635 383.905 598.667C384.081 598.795 384.177 598.971 384.097 599.195C384.033 599.371 383.985 599.547 383.921 599.723C383.265 601.675 382.593 603.611 381.921 605.563C381.633 606.411 381.329 607.259 381.041 608.107C381.009 608.155 380.993 608.203 380.977 608.267C380.993 608.267 380.993 608.267 381.009 608.283Z" fill="#8b8b8b" fill-rule="nonzero" opacity="1" stroke="none"/>
<path d="M389.505 611.628C389.489 611.916 389.537 612.22 389.649 612.524C389.681 612.652 389.745 612.764 389.809 612.876C389.937 613.052 390.081 613.132 390.305 613.1C390.705 613.036 391.089 612.892 391.457 612.732C392.305 612.364 393.073 611.9 393.794 611.324C394.482 610.779 395.186 610.251 395.858 609.691C396.018 609.563 396.194 609.451 396.418 609.435C396.482 609.419 396.546 609.419 396.61 609.435C396.754 609.499 396.802 609.611 396.738 609.755C396.706 609.835 396.642 609.915 396.578 609.979C396.21 610.347 395.826 610.667 395.426 610.987C394.45 611.756 393.458 612.492 392.417 613.18C391.857 613.58 391.233 613.836 390.545 613.964C389.745 614.124 388.993 614.028 388.289 613.596C387.825 613.308 387.489 612.908 387.281 612.396C387.137 612.012 387.057 611.612 387.057 611.195C387.057 610.811 387.105 610.427 387.217 610.059C387.505 609.035 388.001 608.139 388.705 607.355C389.153 606.859 389.665 606.443 390.257 606.123C390.769 605.851 391.313 605.675 391.905 605.611C392.353 605.563 392.801 605.579 393.233 605.691C393.57 605.771 393.89 605.867 394.146 606.107C394.45 606.363 394.642 606.683 394.642 607.099C394.642 607.339 394.61 607.547 394.53 607.771C394.386 608.267 394.162 608.715 393.858 609.115C393.153 610.027 392.257 610.555 391.121 610.683C390.657 610.731 390.177 610.763 389.713 610.699C389.617 610.683 389.585 610.731 389.569 610.811C389.537 611.067 389.505 611.324 389.505 611.628ZM392.401 607.243C392.385 607.179 392.369 607.099 392.369 607.035C392.353 606.955 392.305 606.939 392.257 606.971C392.209 606.971 392.177 606.987 392.145 607.003C391.841 607.163 391.569 607.355 391.329 607.579C390.897 607.995 390.545 608.475 390.257 608.987C390.129 609.211 390.017 609.435 389.937 609.659C389.889 609.755 389.905 609.787 390.017 609.771C390.145 609.755 390.273 609.723 390.401 609.707C390.753 609.643 391.057 609.499 391.313 609.243C391.729 608.843 392.081 608.379 392.289 607.835C392.353 607.643 392.369 607.451 392.401 607.243Z" fill="#8b8b8b" fill-rule="nonzero" opacity="1" stroke="none"/>
<path d="M406.898 606.667C406.978 606.603 406.978 606.539 407.01 606.491C407.218 605.947 407.634 605.707 408.211 605.691C408.451 605.675 408.691 605.691 408.931 605.787C408.963 605.803 409.011 605.803 409.059 605.835C409.347 605.963 409.443 606.155 409.395 606.475C409.331 606.811 409.251 607.147 409.139 607.467C408.883 608.299 408.563 609.115 408.243 609.931C408.147 610.203 408.05 610.491 407.938 610.763C407.938 610.795 407.906 610.827 407.938 610.875C407.986 610.875 408.034 610.827 408.082 610.795C408.771 610.395 409.459 609.963 410.179 609.595C410.355 609.499 410.547 609.419 410.755 609.387C410.867 609.371 410.963 609.387 411.075 609.419C411.219 609.483 411.251 609.595 411.155 609.723C411.091 609.803 411.011 609.867 410.915 609.915C409.923 610.555 408.915 611.147 407.906 611.756C407.506 611.98 407.506 611.98 407.346 612.412C406.962 613.436 406.626 614.492 406.274 615.532C405.954 616.476 405.618 617.404 405.234 618.316C405.106 618.62 404.962 618.908 404.738 619.164C404.13 619.916 403.138 619.996 402.418 619.676C402.066 619.516 401.794 619.292 401.586 618.972C401.282 618.508 401.026 618.044 400.882 617.516C400.69 616.828 400.818 616.188 401.234 615.612C401.506 615.244 401.826 614.924 402.162 614.636C402.866 614.012 403.65 613.484 404.418 612.972C404.514 612.908 404.594 612.828 404.626 612.716C404.738 612.38 404.85 612.06 404.962 611.724C404.978 611.676 405.01 611.628 405.01 611.58C404.946 611.596 404.93 611.644 404.914 611.676C404.706 611.964 404.498 612.252 404.306 612.54C404.098 612.828 403.874 613.084 403.618 613.34C402.882 614.06 401.714 614.012 401.058 613.612C400.674 613.388 400.45 613.036 400.29 612.636C400.194 612.412 400.162 612.156 400.146 611.9C400.114 611.227 400.226 610.587 400.418 609.947C400.562 609.451 400.722 608.971 400.946 608.523C401.186 608.043 401.506 607.643 401.826 607.227C402.066 606.939 402.322 606.667 402.626 606.443C403.09 606.091 403.602 605.883 404.162 605.803C404.706 605.707 405.25 605.723 405.778 605.851C406.242 605.963 406.61 606.203 406.866 606.619C406.866 606.635 406.882 606.635 406.898 606.667ZM406.13 608.075C405.986 607.979 405.89 607.883 405.81 607.755C405.762 607.643 405.698 607.531 405.65 607.435C405.57 607.243 405.458 607.083 405.346 606.923C405.218 606.763 405.074 606.763 404.914 606.811C404.802 606.859 404.69 606.923 404.61 607.003C404.338 607.243 404.066 607.515 403.874 607.835C403.426 608.587 403.09 609.403 402.866 610.251C402.706 610.859 402.61 611.452 402.546 612.076C402.53 612.268 402.53 612.46 402.562 612.652C402.562 612.7 402.562 612.764 402.61 612.78C402.674 612.812 402.706 612.748 402.738 612.716C402.962 612.492 403.17 612.252 403.362 611.996C404.002 611.083 404.61 610.139 405.218 609.195C405.474 608.795 405.698 608.347 406.13 608.075ZM404.082 614.476C404.002 614.476 403.986 614.508 403.954 614.524C403.826 614.652 403.682 614.764 403.538 614.892C403.186 615.228 402.834 615.548 402.562 615.948C402.21 616.46 402.194 616.988 402.418 617.548C402.53 617.82 402.69 618.076 402.85 618.332C402.866 618.364 402.882 618.428 402.962 618.428C403.362 617.132 403.698 615.804 404.082 614.476Z" fill="#8b8b8b" fill-rule="nonzero" opacity="1" stroke="none"/>
<path d="M415.395 610.891C415.251 611.099 415.107 611.324 414.963 611.532C414.643 611.98 414.339 612.412 414.019 612.86C413.875 613.052 413.699 613.244 413.507 613.404C413.203 613.66 412.851 613.82 412.451 613.868C412.083 613.916 411.715 613.9 411.347 613.772C410.723 613.564 410.387 613.084 410.195 612.492C410.083 612.14 410.067 611.772 410.099 611.404C410.163 610.459 410.451 609.563 410.819 608.699C411.011 608.267 411.267 607.883 411.555 607.515C411.827 607.163 412.115 606.827 412.451 606.539C412.947 606.123 413.523 605.899 414.147 605.787C414.643 605.723 415.139 605.739 415.619 605.819C416.035 605.899 416.387 606.075 416.659 606.395C416.691 606.427 416.707 606.459 416.739 606.491C416.819 606.587 416.835 606.571 416.899 606.475C416.947 606.395 416.995 606.315 417.043 606.251C417.139 606.107 417.235 605.979 417.379 605.883C417.715 605.659 418.099 605.627 418.483 605.675C418.675 605.691 418.835 605.755 418.979 605.851C419.139 605.963 419.203 606.107 419.203 606.283C419.203 606.443 419.171 606.587 419.123 606.715C419.043 606.923 418.963 607.131 418.883 607.323C418.723 607.771 418.547 608.219 418.371 608.667C418.275 608.891 418.227 609.115 418.163 609.339C418.019 609.883 417.795 610.379 417.651 610.923C417.475 611.5 417.347 612.092 417.363 612.7C417.363 612.78 417.379 612.876 417.395 612.972C417.411 613.052 417.443 613.068 417.507 613.02C417.603 612.972 417.667 612.908 417.731 612.844C418.099 612.508 418.403 612.108 418.691 611.708C419.219 611.019 419.747 610.315 420.275 609.627C420.435 609.419 420.611 609.275 420.851 609.211C420.963 609.179 421.059 609.163 421.155 609.243C421.235 609.355 421.219 609.467 421.171 609.563C421.091 609.771 420.963 609.931 420.851 610.107C420.291 610.923 419.683 611.692 419.091 612.476C418.867 612.78 418.659 613.1 418.387 613.356C417.891 613.836 417.283 613.996 416.611 613.82C416.019 613.66 415.651 613.26 415.475 612.668C415.363 612.3 415.363 611.9 415.395 611.516C415.411 611.307 415.411 611.099 415.427 610.907C415.427 610.891 415.411 610.891 415.395 610.891ZM416.099 608.059C415.843 607.947 415.763 607.755 415.667 607.563C415.587 607.387 415.507 607.227 415.411 607.083C415.171 606.731 414.995 606.699 414.627 606.939C414.595 606.971 414.563 606.987 414.531 607.019C414.259 607.259 414.019 607.531 413.827 607.835C413.507 608.379 413.235 608.955 413.027 609.547C412.755 610.315 412.611 611.099 412.531 611.9C412.499 612.14 412.451 612.38 412.515 612.62C412.531 612.684 412.499 612.764 412.579 612.78C412.643 612.812 412.675 612.732 412.723 612.684C413.059 612.364 413.331 611.98 413.603 611.596C414.179 610.747 414.739 609.883 415.299 609.003C415.507 608.667 415.699 608.315 416.099 608.059Z" fill="#8b8b8b" fill-rule="nonzero" opacity="1" stroke="none"/>
<path d="M429.332 607.547C429.268 607.595 429.188 607.659 429.124 607.723C428.772 608.043 428.468 608.427 428.164 608.811C427.508 609.627 426.916 610.491 426.356 611.356C426.148 611.676 426.02 612.012 425.908 612.364C425.812 612.652 425.684 612.908 425.54 613.18C425.428 613.404 425.236 613.532 424.996 613.596C424.708 613.676 424.436 613.66 424.148 613.58C424.084 613.548 424.02 613.516 423.956 613.484C423.796 613.388 423.7 613.244 423.7 613.052C423.7 612.828 423.732 612.62 423.78 612.396C423.988 611.532 424.196 610.667 424.484 609.819C424.58 609.531 424.692 609.243 424.788 608.955C424.82 608.907 424.836 608.843 424.852 608.779C424.804 608.795 424.788 608.827 424.756 608.859C424.052 609.867 423.332 610.859 422.611 611.868C422.339 612.252 422.083 612.62 421.827 613.004C421.635 613.292 421.411 613.58 421.219 613.868C421.123 614.012 420.979 614.092 420.819 614.14C420.483 614.236 420.147 614.22 419.827 614.092C419.587 613.996 419.459 613.836 419.443 613.58C419.427 613.18 419.427 612.78 419.507 612.396C419.683 611.676 419.859 610.955 420.099 610.251C420.371 609.435 420.627 608.603 420.899 607.787C421.043 607.355 421.219 606.923 421.395 606.507C421.427 606.427 421.459 606.363 421.491 606.283C421.587 606.075 421.747 605.931 421.955 605.851C422.467 605.659 422.979 605.659 423.492 605.851C423.572 605.883 423.652 605.931 423.732 605.995C423.876 606.123 423.956 606.267 423.924 606.459C423.924 606.587 423.876 606.699 423.844 606.811C423.668 607.307 423.492 607.803 423.3 608.299C423.284 608.363 423.252 608.411 423.252 608.491C423.332 608.443 423.364 608.379 423.412 608.315C423.956 607.611 424.548 606.955 425.156 606.331C425.316 606.155 425.492 606.011 425.684 605.883C425.892 605.723 426.116 605.643 426.356 605.611C426.692 605.563 427.012 605.595 427.316 605.707C427.7 605.851 427.844 606.075 427.844 606.475C427.844 606.683 427.812 606.875 427.796 607.083C427.86 607.083 427.892 607.035 427.924 607.003C428.324 606.603 428.74 606.267 429.22 605.963C429.508 605.771 429.828 605.611 430.18 605.579C430.548 605.531 430.9 605.547 431.236 605.691C431.636 605.867 431.812 606.171 431.828 606.587C431.844 606.955 431.748 607.307 431.636 607.643C431.412 608.379 431.188 609.099 431.012 609.835C430.804 610.619 430.612 611.404 430.484 612.204C430.452 612.444 430.468 612.684 430.468 612.924C430.548 612.924 430.58 612.86 430.628 612.828C431.012 612.428 431.364 612.012 431.716 611.58C432.148 611.051 432.564 610.523 432.98 609.995C433.124 609.835 433.268 609.691 433.46 609.627C433.588 609.595 433.716 609.547 433.812 609.675C433.892 609.787 433.844 609.899 433.78 610.011C433.604 610.251 433.428 610.507 433.236 610.763C432.756 611.42 432.228 612.06 431.732 612.716C431.492 613.02 431.268 613.356 431.012 613.66C430.804 613.9 430.564 614.092 430.244 614.156C429.796 614.22 429.364 614.172 428.996 613.868C428.836 613.724 428.708 613.548 428.628 613.34C428.548 613.148 428.5 612.956 428.468 612.764C428.388 612.268 428.42 611.772 428.484 611.275C428.644 610.139 428.884 609.019 429.236 607.931C429.268 607.803 429.316 607.691 429.348 607.563L429.332 607.547Z" fill="#8b8b8b" fill-rule="nonzero" opacity="1" stroke="none"/>
<path d="M435.172 611.628C435.156 611.916 435.204 612.22 435.316 612.524C435.348 612.652 435.412 612.764 435.476 612.876C435.604 613.052 435.748 613.132 435.972 613.1C436.372 613.036 436.756 612.892 437.124 612.732C437.973 612.364 438.741 611.9 439.461 611.324C440.149 610.779 440.853 610.251 441.525 609.691C441.685 609.563 441.861 609.451 442.085 609.435C442.149 609.419 442.213 609.419 442.277 609.435C442.421 609.499 442.469 609.611 442.405 609.755C442.373 609.835 442.309 609.915 442.245 609.979C441.877 610.347 441.493 610.667 441.093 610.987C440.117 611.756 439.125 612.492 438.085 613.18C437.524 613.58 436.9 613.836 436.212 613.964C435.412 614.124 434.66 614.028 433.956 613.596C433.492 613.308 433.156 612.908 432.948 612.396C432.804 612.012 432.724 611.612 432.724 611.195C432.724 610.811 432.772 610.427 432.884 610.059C433.172 609.035 433.668 608.139 434.372 607.355C434.82 606.859 435.332 606.443 435.924 606.123C436.436 605.851 436.98 605.675 437.572 605.611C438.021 605.563 438.469 605.579 438.901 605.691C439.237 605.771 439.557 605.867 439.813 606.107C440.117 606.363 440.309 606.683 440.309 607.099C440.309 607.339 440.277 607.547 440.197 607.771C440.053 608.267 439.829 608.715 439.525 609.115C438.821 610.027 437.925 610.555 436.788 610.683C436.324 610.731 435.844 610.763 435.38 610.699C435.284 610.683 435.252 610.731 435.236 610.811C435.204 611.067 435.172 611.324 435.172 611.628ZM438.069 607.243C438.053 607.179 438.037 607.099 438.037 607.035C438.021 606.955 437.973 606.939 437.925 606.971C437.877 606.971 437.845 606.987 437.812 607.003C437.508 607.163 437.236 607.355 436.996 607.579C436.564 607.995 436.212 608.475 435.924 608.987C435.796 609.211 435.684 609.435 435.604 609.659C435.556 609.755 435.572 609.787 435.684 609.771C435.812 609.755 435.94 609.723 436.068 609.707C436.42 609.643 436.724 609.499 436.98 609.243C437.396 608.843 437.748 608.379 437.957 607.835C438.021 607.643 438.037 607.451 438.069 607.243Z" fill="#8b8b8b" fill-rule="nonzero" opacity="1" stroke="none"/>
<path d="M442.901 613.436C442.917 613.148 442.981 612.876 443.045 612.604C443.237 611.74 443.477 610.891 443.717 610.043C444.245 608.283 444.789 606.555 445.349 604.827C445.781 603.531 446.181 602.235 446.597 600.955C446.693 600.667 446.805 600.395 446.901 600.107C446.997 599.851 447.173 599.707 447.413 599.627C447.845 599.483 448.277 599.467 448.709 599.611C448.869 599.659 449.013 599.739 449.125 599.867C449.237 599.979 449.269 600.107 449.253 600.251C449.221 600.459 449.157 600.651 449.093 600.843C448.789 601.707 448.485 602.571 448.165 603.435C447.861 604.251 447.605 605.099 447.333 605.915C446.549 608.251 445.765 610.571 444.997 612.908C444.933 613.052 444.901 613.212 444.837 613.356C444.757 613.612 444.629 613.852 444.437 614.044C444.245 614.22 444.005 614.332 443.749 614.364C443.413 614.396 443.061 614.14 442.965 613.852C442.933 613.724 442.901 613.58 442.901 613.436ZM443.173 615.148C443.541 615.148 443.877 615.276 444.197 615.5C444.469 615.676 444.613 615.948 444.677 616.268C444.709 616.38 444.677 616.492 444.629 616.588C444.533 616.828 444.389 617.052 444.197 617.228C443.941 617.5 443.605 617.596 443.237 617.596C442.965 617.596 442.709 617.532 442.453 617.42C442.085 617.26 441.829 617.004 441.749 616.588C441.733 616.428 441.749 616.268 441.797 616.124C442.021 615.548 442.437 615.148 443.173 615.148Z" fill="#8b8b8b" fill-rule="nonzero" opacity="1" stroke="none"/>
</g>
</g>
</svg>
